<<<<<<< HEAD
<mxfile><diagram id="huk61vHUiTfTEn5VBC3T" name="Página-1"><mxGraphModel dx="1758" dy="1182" grid="0" gridSize="10" guides="1" tooltips="1" connect="1" arrows="1" fold="1" page="0" pageScale="1" pageWidth="827" pageHeight="1169" background="none" math="0" shadow="0"><root><mxCell id="0"/><mxCell id="1" parent="0"/><mxCell id="SLbIaxvjg7kRNYuyK55--17" style="edgeStyle=orthogonalEdgeStyle;rounded=0;orthogonalLoop=1;jettySize=auto;html=1;entryX=0.5;entryY=0;entryDx=0;entryDy=0;endArrow=none;endFill=0;" parent="1" source="2FXM18CVwoB-Fw4CSE5F-6" target="2FXM18CVwoB-Fw4CSE5F-53" edge="1"><mxGeometry relative="1" as="geometry"><Array as="points"><mxPoint x="29" y="427"/></Array></mxGeometry></mxCell><mxCell id="17" value="1" style="edgeLabel;html=1;align=center;verticalAlign=middle;resizable=0;points=[];rounded=0;" parent="SLbIaxvjg7kRNYuyK55--17" vertex="1" connectable="0"><mxGeometry x="-0.8996" y="-1" relative="1" as="geometry"><mxPoint x="-10" as="offset"/></mxGeometry></mxCell><mxCell id="18" value="*" style="edgeLabel;html=1;align=center;verticalAlign=middle;resizable=0;points=[];rounded=0;" parent="SLbIaxvjg7kRNYuyK55--17" vertex="1" connectable="0"><mxGeometry x="0.8061" y="-3" relative="1" as="geometry"><mxPoint x="-7" y="-1" as="offset"/></mxGeometry></mxCell><mxCell id="2FXM18CVwoB-Fw4CSE5F-6" value="Jogador" style="swimlane;fontStyle=1;align=center;verticalAlign=top;childLayout=stackLayout;horizontal=1;startSize=26;horizontalStack=0;resizeParent=1;resizeParentMax=0;resizeLast=0;collapsible=1;marginBottom=0;rounded=0;" parent="1" vertex="1"><mxGeometry x="-51" width="160" height="208" as="geometry"/></mxCell><mxCell id="2FXM18CVwoB-Fw4CSE5F-58" value="- nr_licenca" style="text;strokeColor=none;fillColor=none;align=left;verticalAlign=top;spacingLeft=4;spacingRight=4;overflow=hidden;rotatable=0;points=[[0,0.5],[1,0.5]];portConstraint=eastwest;rounded=0;" parent="2FXM18CVwoB-Fw4CSE5F-6" vertex="1"><mxGeometry y="26" width="160" height="26" as="geometry"/></mxCell><mxCell id="2FXM18CVwoB-Fw4CSE5F-64" value="- nome_jogador" style="text;strokeColor=none;fillColor=none;align=left;verticalAlign=top;spacingLeft=4;spacingRight=4;overflow=hidden;rotatable=0;points=[[0,0.5],[1,0.5]];portConstraint=eastwest;rounded=0;" parent="2FXM18CVwoB-Fw4CSE5F-6" vertex="1"><mxGeometry y="52" width="160" height="26" as="geometry"/></mxCell><mxCell id="2FXM18CVwoB-Fw4CSE5F-65" value="- data_nascimento" style="text;strokeColor=none;fillColor=none;align=left;verticalAlign=top;spacingLeft=4;spacingRight=4;overflow=hidden;rotatable=0;points=[[0,0.5],[1,0.5]];portConstraint=eastwest;rounded=0;" parent="2FXM18CVwoB-Fw4CSE5F-6" vertex="1"><mxGeometry y="78" width="160" height="26" as="geometry"/></mxCell><mxCell id="2FXM18CVwoB-Fw4CSE5F-67" value="- altura" style="text;strokeColor=none;fillColor=none;align=left;verticalAlign=top;spacingLeft=4;spacingRight=4;overflow=hidden;rotatable=0;points=[[0,0.5],[1,0.5]];portConstraint=eastwest;rounded=0;" parent="2FXM18CVwoB-Fw4CSE5F-6" vertex="1"><mxGeometry y="104" width="160" height="26" as="geometry"/></mxCell><mxCell id="vSze7hh99SfQkh1K5WJs-11" value="- sexo" style="text;strokeColor=none;fillColor=none;align=left;verticalAlign=top;spacingLeft=4;spacingRight=4;overflow=hidden;rotatable=0;points=[[0,0.5],[1,0.5]];portConstraint=eastwest;rounded=0;" parent="2FXM18CVwoB-Fw4CSE5F-6" vertex="1"><mxGeometry y="130" width="160" height="26" as="geometry"/></mxCell><mxCell id="9e_5NHwTsUJd0ifScqXE-55" value="- nacionalidade" style="text;strokeColor=none;fillColor=none;align=left;verticalAlign=top;spacingLeft=4;spacingRight=4;overflow=hidden;rotatable=0;points=[[0,0.5],[1,0.5]];portConstraint=eastwest;rounded=0;" parent="2FXM18CVwoB-Fw4CSE5F-6" vertex="1"><mxGeometry y="156" width="160" height="26" as="geometry"/></mxCell><mxCell id="44" value="- pontos_marcados" style="text;strokeColor=none;fillColor=none;align=left;verticalAlign=top;spacingLeft=4;spacingRight=4;overflow=hidden;rotatable=0;points=[[0,0.5],[1,0.5]];portConstraint=eastwest;rounded=0;" parent="2FXM18CVwoB-Fw4CSE5F-6" vertex="1"><mxGeometry y="182" width="160" height="26" as="geometry"/></mxCell><mxCell id="SLbIaxvjg7kRNYuyK55--51" style="edgeStyle=orthogonalEdgeStyle;shape=link;rounded=0;orthogonalLoop=1;jettySize=auto;html=1;entryX=0.5;entryY=0;entryDx=0;entryDy=0;endArrow=none;endFill=0;width=28.888888888888886;" parent="1" source="2FXM18CVwoB-Fw4CSE5F-10" target="2FXM18CVwoB-Fw4CSE5F-24" edge="1"><mxGeometry relative="1" as="geometry"/></mxCell><mxCell id="3" value="visitante" style="edgeLabel;html=1;align=center;verticalAlign=middle;resizable=0;points=[];rounded=0;" parent="SLbIaxvjg7kRNYuyK55--51" vertex="1" connectable="0"><mxGeometry x="-0.1577" y="-14" relative="1" as="geometry"><mxPoint x="-32" y="18" as="offset"/></mxGeometry></mxCell><mxCell id="4" value="visitado" style="edgeLabel;html=1;align=center;verticalAlign=middle;resizable=0;points=[];rounded=0;" parent="SLbIaxvjg7kRNYuyK55--51" vertex="1" connectable="0"><mxGeometry x="-0.1085" y="14" relative="1" as="geometry"><mxPoint x="26" y="10" as="offset"/></mxGeometry></mxCell><mxCell id="34" value="1" style="edgeLabel;html=1;align=center;verticalAlign=middle;resizable=0;points=[];rounded=0;" parent="SLbIaxvjg7kRNYuyK55--51" vertex="1" connectable="0"><mxGeometry x="-0.8912" y="-15" relative="1" as="geometry"><mxPoint x="-7" y="-3" as="offset"/></mxGeometry></mxCell><mxCell id="2FXM18CVwoB-Fw4CSE5F-10" value="Clube" style="swimlane;fontStyle=1;align=center;verticalAlign=top;childLayout=stackLayout;horizontal=1;startSize=26;horizontalStack=0;resizeParent=1;resizeParentMax=0;resizeLast=0;collapsible=1;marginBottom=0;rounded=0;" parent="1" vertex="1"><mxGeometry x="320" width="160" height="135" as="geometry"/></mxCell><mxCell id="2FXM18CVwoB-Fw4CSE5F-11" value="- nome_clube" style="text;strokeColor=none;fillColor=none;align=left;verticalAlign=top;spacingLeft=4;spacingRight=4;overflow=hidden;rotatable=0;points=[[0,0.5],[1,0.5]];portConstraint=eastwest;rounded=0;" parent="2FXM18CVwoB-Fw4CSE5F-10" vertex="1"><mxGeometry y="26" width="160" height="26" as="geometry"/></mxCell><mxCell id="2FXM18CVwoB-Fw4CSE5F-69" value="- ano_fundacao" style="text;strokeColor=none;fillColor=none;align=left;verticalAlign=top;spacingLeft=4;spacingRight=4;overflow=hidden;rotatable=0;points=[[0,0.5],[1,0.5]];portConstraint=eastwest;rounded=0;" parent="2FXM18CVwoB-Fw4CSE5F-10" vertex="1"><mxGeometry y="52" width="160" height="26" as="geometry"/></mxCell><mxCell id="9e_5NHwTsUJd0ifScqXE-1" value="- cidade" style="text;strokeColor=none;fillColor=none;align=left;verticalAlign=top;spacingLeft=4;spacingRight=4;overflow=hidden;rotatable=0;points=[[0,0.5],[1,0.5]];portConstraint=eastwest;rounded=0;" parent="2FXM18CVwoB-Fw4CSE5F-10" vertex="1"><mxGeometry y="78" width="160" height="26" as="geometry"/></mxCell><mxCell id="9e_5NHwTsUJd0ifScqXE-2" value="- treinador" style="text;strokeColor=none;fillColor=none;align=left;verticalAlign=top;spacingLeft=4;spacingRight=4;overflow=hidden;rotatable=0;points=[[0,0.5],[1,0.5]];portConstraint=eastwest;rounded=0;" parent="2FXM18CVwoB-Fw4CSE5F-10" vertex="1"><mxGeometry y="104" width="160" height="31" as="geometry"/></mxCell><mxCell id="2FXM18CVwoB-Fw4CSE5F-14" value="Pavilhao" style="swimlane;fontStyle=1;align=center;verticalAlign=top;childLayout=stackLayout;horizontal=1;startSize=26;horizontalStack=0;resizeParent=1;resizeParentMax=0;resizeLast=0;collapsible=1;marginBottom=0;rounded=0;" parent="1" vertex="1"><mxGeometry x="570" y="91" width="160" height="130" as="geometry"/></mxCell><mxCell id="2FXM18CVwoB-Fw4CSE5F-15" value="- id_pavilhao" style="text;strokeColor=none;fillColor=none;align=left;verticalAlign=top;spacingLeft=4;spacingRight=4;overflow=hidden;rotatable=0;points=[[0,0.5],[1,0.5]];portConstraint=eastwest;rounded=0;" parent="2FXM18CVwoB-Fw4CSE5F-14" vertex="1"><mxGeometry y="26" width="160" height="26" as="geometry"/></mxCell><mxCell id="2FXM18CVwoB-Fw4CSE5F-70" value="- morada" style="text;strokeColor=none;fillColor=none;align=left;verticalAlign=top;spacingLeft=4;spacingRight=4;overflow=hidden;rotatable=0;points=[[0,0.5],[1,0.5]];portConstraint=eastwest;rounded=0;" parent="2FXM18CVwoB-Fw4CSE5F-14" vertex="1"><mxGeometry y="52" width="160" height="26" as="geometry"/></mxCell><mxCell id="9e_5NHwTsUJd0ifScqXE-25" value="- capacidade" style="text;strokeColor=none;fillColor=none;align=left;verticalAlign=top;spacingLeft=4;spacingRight=4;overflow=hidden;rotatable=0;points=[[0,0.5],[1,0.5]];portConstraint=eastwest;rounded=0;" parent="2FXM18CVwoB-Fw4CSE5F-14" vertex="1"><mxGeometry y="78" width="160" height="26" as="geometry"/></mxCell><mxCell id="103" value="- nome_pavilhao" style="text;strokeColor=none;fillColor=none;align=left;verticalAlign=top;spacingLeft=4;spacingRight=4;overflow=hidden;rotatable=0;points=[[0,0.5],[1,0.5]];portConstraint=eastwest;rounded=0;" parent="2FXM18CVwoB-Fw4CSE5F-14" vertex="1"><mxGeometry y="104" width="160" height="26" as="geometry"/></mxCell><mxCell id="2FXM18CVwoB-Fw4CSE5F-21" value="" style="endArrow=none;html=1;edgeStyle=orthogonalEdgeStyle;rounded=0;exitX=1;exitY=0.5;exitDx=0;exitDy=0;entryX=0;entryY=0.5;entryDx=0;entryDy=0;" parent="1" source="2FXM18CVwoB-Fw4CSE5F-11" target="2FXM18CVwoB-Fw4CSE5F-15" edge="1"><mxGeometry relative="1" as="geometry"><mxPoint x="510" y="160" as="sourcePoint"/><mxPoint x="520" y="160" as="targetPoint"/><Array as="points"><mxPoint x="480" y="123"/><mxPoint x="570" y="123"/></Array></mxGeometry></mxCell><mxCell id="2FXM18CVwoB-Fw4CSE5F-22" value="1" style="edgeLabel;resizable=0;html=1;align=left;verticalAlign=bottom;rounded=0;" parent="2FXM18CVwoB-Fw4CSE5F-21" connectable="0" vertex="1"><mxGeometry x="-1" relative="1" as="geometry"><mxPoint x="1" y="6" as="offset"/></mxGeometry></mxCell><mxCell id="2FXM18CVwoB-Fw4CSE5F-23" value="1" style="edgeLabel;resizable=0;html=1;align=right;verticalAlign=bottom;rounded=0;" parent="2FXM18CVwoB-Fw4CSE5F-21" connectable="0" vertex="1"><mxGeometry x="1" relative="1" as="geometry"><mxPoint x="-3" y="-10" as="offset"/></mxGeometry></mxCell><mxCell id="2FXM18CVwoB-Fw4CSE5F-24" value="Jogo" style="swimlane;fontStyle=1;align=center;verticalAlign=top;childLayout=stackLayout;horizontal=1;startSize=26;horizontalStack=0;resizeParent=1;resizeParentMax=0;resizeLast=0;collapsible=1;marginBottom=0;rounded=0;" parent="1" vertex="1"><mxGeometry x="320" y="440" width="160" height="156" as="geometry"/></mxCell><mxCell id="43" value="- id_jogo" style="text;strokeColor=none;fillColor=none;align=left;verticalAlign=top;spacingLeft=4;spacingRight=4;overflow=hidden;rotatable=0;points=[[0,0.5],[1,0.5]];portConstraint=eastwest;rounded=0;" parent="2FXM18CVwoB-Fw4CSE5F-24" vertex="1"><mxGeometry y="26" width="160" height="26" as="geometry"/></mxCell><mxCell id="2FXM18CVwoB-Fw4CSE5F-25" value="- jornada" style="text;strokeColor=none;fillColor=none;align=left;verticalAlign=top;spacingLeft=4;spacingRight=4;overflow=hidden;rotatable=0;points=[[0,0.5],[1,0.5]];portConstraint=eastwest;rounded=0;" parent="2FXM18CVwoB-Fw4CSE5F-24" vertex="1"><mxGeometry y="52" width="160" height="26" as="geometry"/></mxCell><mxCell id="2FXM18CVwoB-Fw4CSE5F-37" value="- data_jogo" style="text;strokeColor=none;fillColor=none;align=left;verticalAlign=top;spacingLeft=4;spacingRight=4;overflow=hidden;rotatable=0;points=[[0,0.5],[1,0.5]];portConstraint=eastwest;rounded=0;" parent="2FXM18CVwoB-Fw4CSE5F-24" vertex="1"><mxGeometry y="78" width="160" height="26" as="geometry"/></mxCell><mxCell id="2FXM18CVwoB-Fw4CSE5F-41" value="- resultado" style="text;strokeColor=none;fillColor=none;align=left;verticalAlign=top;spacingLeft=4;spacingRight=4;overflow=hidden;rotatable=0;points=[[0,0.5],[1,0.5]];portConstraint=eastwest;rounded=0;" parent="2FXM18CVwoB-Fw4CSE5F-24" vertex="1"><mxGeometry y="104" width="160" height="26" as="geometry"/></mxCell><mxCell id="2FXM18CVwoB-Fw4CSE5F-38" value="- fase" style="text;strokeColor=none;fillColor=none;align=left;verticalAlign=top;spacingLeft=4;spacingRight=4;overflow=hidden;rotatable=0;points=[[0,0.5],[1,0.5]];portConstraint=eastwest;rounded=0;" parent="2FXM18CVwoB-Fw4CSE5F-24" vertex="1"><mxGeometry y="130" width="160" height="26" as="geometry"/></mxCell><mxCell id="2FXM18CVwoB-Fw4CSE5F-48" value="Substituicao" style="swimlane;fontStyle=1;align=center;verticalAlign=top;childLayout=stackLayout;horizontal=1;startSize=26;horizontalStack=0;resizeParent=1;resizeParentMax=0;resizeLast=0;collapsible=1;marginBottom=0;rounded=0;" parent="1" vertex="1"><mxGeometry x="120" y="427" width="121" height="104" as="geometry"/></mxCell><mxCell id="2FXM18CVwoB-Fw4CSE5F-51" value="- id_substituicao" style="text;strokeColor=none;fillColor=none;align=left;verticalAlign=top;spacingLeft=4;spacingRight=4;overflow=hidden;rotatable=0;points=[[0,0.5],[1,0.5]];portConstraint=eastwest;rounded=0;" parent="2FXM18CVwoB-Fw4CSE5F-48" vertex="1"><mxGeometry y="26" width="121" height="26" as="geometry"/></mxCell><mxCell id="2FXM18CVwoB-Fw4CSE5F-59" value="- jogador_entrou" style="text;strokeColor=none;fillColor=none;align=left;verticalAlign=top;spacingLeft=4;spacingRight=4;overflow=hidden;rotatable=0;points=[[0,0.5],[1,0.5]];portConstraint=eastwest;rounded=0;" parent="2FXM18CVwoB-Fw4CSE5F-48" vertex="1"><mxGeometry y="52" width="121" height="26" as="geometry"/></mxCell><mxCell id="95" value="- jogador_saiu" style="text;strokeColor=none;fillColor=none;align=left;verticalAlign=top;spacingLeft=4;spacingRight=4;overflow=hidden;rotatable=0;points=[[0,0.5],[1,0.5]];portConstraint=eastwest;rounded=0;" parent="2FXM18CVwoB-Fw4CSE5F-48" vertex="1"><mxGeometry y="78" width="121" height="26" as="geometry"/></mxCell><mxCell id="2FXM18CVwoB-Fw4CSE5F-53" value="Ponto" style="swimlane;fontStyle=1;align=center;verticalAlign=top;childLayout=stackLayout;horizontal=1;startSize=26;horizontalStack=0;resizeParent=1;resizeParentMax=0;resizeLast=0;collapsible=1;marginBottom=0;rounded=0;" parent="1" vertex="1"><mxGeometry x="-13" y="427" width="108" height="78" as="geometry"/></mxCell><mxCell id="SLbIaxvjg7kRNYuyK55--15" value="- id_ponto" style="text;strokeColor=none;fillColor=none;align=left;verticalAlign=top;spacingLeft=4;spacingRight=4;overflow=hidden;rotatable=0;points=[[0,0.5],[1,0.5]];portConstraint=eastwest;rounded=0;" parent="2FXM18CVwoB-Fw4CSE5F-53" vertex="1"><mxGeometry y="26" width="108" height="26" as="geometry"/></mxCell><mxCell id="94" value="- quantidade" style="text;strokeColor=none;fillColor=none;align=left;verticalAlign=top;spacingLeft=4;spacingRight=4;overflow=hidden;rotatable=0;points=[[0,0.5],[1,0.5]];portConstraint=eastwest;rounded=0;" parent="2FXM18CVwoB-Fw4CSE5F-53" vertex="1"><mxGeometry y="52" width="108" height="26" as="geometry"/></mxCell><mxCell id="9e_5NHwTsUJd0ifScqXE-26" value="" style="endArrow=none;html=1;edgeStyle=orthogonalEdgeStyle;rounded=0;exitX=1;exitY=0.5;exitDx=0;exitDy=0;entryX=0;entryY=0.5;entryDx=0;entryDy=0;" parent="1" source="2FXM18CVwoB-Fw4CSE5F-58" target="2FXM18CVwoB-Fw4CSE5F-11" edge="1"><mxGeometry relative="1" as="geometry"><mxPoint x="270" y="250" as="sourcePoint"/><mxPoint x="430" y="250" as="targetPoint"/></mxGeometry></mxCell><mxCell id="9e_5NHwTsUJd0ifScqXE-27" value="*" style="edgeLabel;resizable=0;html=1;align=left;verticalAlign=bottom;rounded=0;" parent="9e_5NHwTsUJd0ifScqXE-26" connectable="0" vertex="1"><mxGeometry x="-1" relative="1" as="geometry"><mxPoint x="5" as="offset"/></mxGeometry></mxCell><mxCell id="9e_5NHwTsUJd0ifScqXE-28" value="1" style="edgeLabel;resizable=0;html=1;align=right;verticalAlign=bottom;rounded=0;" parent="9e_5NHwTsUJd0ifScqXE-26" connectable="0" vertex="1"><mxGeometry x="1" relative="1" as="geometry"><mxPoint x="-2" as="offset"/></mxGeometry></mxCell><mxCell id="99" style="edgeStyle=none;html=1;endArrow=none;endFill=0;entryX=0.5;entryY=1;entryDx=0;entryDy=0;entryPerimeter=0;" parent="1" source="9e_5NHwTsUJd0ifScqXE-44" target="107" edge="1"><mxGeometry relative="1" as="geometry"><mxPoint x="650" y="453" as="targetPoint"/></mxGeometry></mxCell><mxCell id="9e_5NHwTsUJd0ifScqXE-44" value="Campeonato" style="swimlane;fontStyle=1;align=center;verticalAlign=top;childLayout=stackLayout;horizontal=1;startSize=26;horizontalStack=0;resizeParent=1;resizeParentMax=0;resizeLast=0;collapsible=1;marginBottom=0;rounded=0;" parent="1" vertex="1"><mxGeometry x="570" y="505" width="160" height="78" as="geometry"/></mxCell><mxCell id="9e_5NHwTsUJd0ifScqXE-53" value="- ano" style="text;strokeColor=none;fillColor=none;align=left;verticalAlign=top;spacingLeft=4;spacingRight=4;overflow=hidden;rotatable=0;points=[[0,0.5],[1,0.5]];portConstraint=eastwest;rounded=0;" parent="9e_5NHwTsUJd0ifScqXE-44" vertex="1"><mxGeometry y="26" width="160" height="26" as="geometry"/></mxCell><mxCell id="33" value="- n_jogos" style="text;strokeColor=none;fillColor=none;align=left;verticalAlign=top;spacingLeft=4;spacingRight=4;overflow=hidden;rotatable=0;points=[[0,0.5],[1,0.5]];portConstraint=eastwest;rounded=0;" parent="9e_5NHwTsUJd0ifScqXE-44" vertex="1"><mxGeometry y="52" width="160" height="26" as="geometry"/></mxCell><mxCell id="SLbIaxvjg7kRNYuyK55--13" style="edgeStyle=orthogonalEdgeStyle;rounded=0;orthogonalLoop=1;jettySize=auto;html=1;dashed=1;endArrow=none;endFill=0;" parent="1" edge="1"><mxGeometry relative="1" as="geometry"><mxPoint x="213" y="39" as="targetPoint"/><mxPoint x="213" y="80" as="sourcePoint"/></mxGeometry></mxCell><mxCell id="SLbIaxvjg7kRNYuyK55--8" value="Contrato" style="swimlane;fontStyle=1;align=center;verticalAlign=top;childLayout=stackLayout;horizontal=1;startSize=26;horizontalStack=0;resizeParent=1;resizeParentMax=0;resizeLast=0;collapsible=1;marginBottom=0;rounded=0;" parent="1" vertex="1"><mxGeometry x="160" y="80" width="110" height="104" as="geometry"/></mxCell><mxCell id="SLbIaxvjg7kRNYuyK55--9" value="- data_inicio" style="text;strokeColor=none;fillColor=none;align=left;verticalAlign=top;spacingLeft=4;spacingRight=4;overflow=hidden;rotatable=0;points=[[0,0.5],[1,0.5]];portConstraint=eastwest;rounded=0;" parent="SLbIaxvjg7kRNYuyK55--8" vertex="1"><mxGeometry y="26" width="110" height="26" as="geometry"/></mxCell><mxCell id="SLbIaxvjg7kRNYuyK55--12" value="- data_fim" style="text;strokeColor=none;fillColor=none;align=left;verticalAlign=top;spacingLeft=4;spacingRight=4;overflow=hidden;rotatable=0;points=[[0,0.5],[1,0.5]];portConstraint=eastwest;rounded=0;" parent="SLbIaxvjg7kRNYuyK55--8" vertex="1"><mxGeometry y="52" width="110" height="26" as="geometry"/></mxCell><mxCell id="SLbIaxvjg7kRNYuyK55--14" value="- salario" style="text;strokeColor=none;fillColor=none;align=left;verticalAlign=top;spacingLeft=4;spacingRight=4;overflow=hidden;rotatable=0;points=[[0,0.5],[1,0.5]];portConstraint=eastwest;rounded=0;" parent="SLbIaxvjg7kRNYuyK55--8" vertex="1"><mxGeometry y="78" width="110" height="26" as="geometry"/></mxCell><mxCell id="64" style="edgeStyle=none;rounded=0;html=1;endArrow=none;endFill=0;strokeColor=default;entryX=0.731;entryY=1.038;entryDx=0;entryDy=0;entryPerimeter=0;" parent="1" target="9e_5NHwTsUJd0ifScqXE-2" edge="1"><mxGeometry relative="1" as="geometry"><mxPoint x="437" y="127" as="targetPoint"/><Array as="points"><mxPoint x="437" y="260"/></Array><mxPoint x="570" y="260" as="sourcePoint"/></mxGeometry></mxCell><mxCell id="SLbIaxvjg7kRNYuyK55--54" value="EstatisticasClube" style="swimlane;fontStyle=1;align=center;verticalAlign=top;childLayout=stackLayout;horizontal=1;startSize=26;horizontalStack=0;resizeParent=1;resizeParentMax=0;resizeLast=0;collapsible=1;marginBottom=0;rounded=0;" parent="1" vertex="1"><mxGeometry x="570" y="240" width="160" height="234" as="geometry"/></mxCell><mxCell id="2" value="- id_estatistica" style="text;strokeColor=none;fillColor=none;align=left;verticalAlign=top;spacingLeft=4;spacingRight=4;overflow=hidden;rotatable=0;points=[[0,0.5],[1,0.5]];portConstraint=eastwest;rounded=0;" parent="SLbIaxvjg7kRNYuyK55--54" vertex="1"><mxGeometry y="26" width="160" height="26" as="geometry"/></mxCell><mxCell id="vSze7hh99SfQkh1K5WJs-4" value="- n_jogos" style="text;strokeColor=none;fillColor=none;align=left;verticalAlign=top;spacingLeft=4;spacingRight=4;overflow=hidden;rotatable=0;points=[[0,0.5],[1,0.5]];portConstraint=eastwest;rounded=0;" parent="SLbIaxvjg7kRNYuyK55--54" vertex="1"><mxGeometry y="52" width="160" height="26" as="geometry"/></mxCell><mxCell id="vSze7hh99SfQkh1K5WJs-3" value="- pontuacao" style="text;strokeColor=none;fillColor=none;align=left;verticalAlign=top;spacingLeft=4;spacingRight=4;overflow=hidden;rotatable=0;points=[[0,0.5],[1,0.5]];portConstraint=eastwest;rounded=0;" parent="SLbIaxvjg7kRNYuyK55--54" vertex="1"><mxGeometry y="78" width="160" height="26" as="geometry"/></mxCell><mxCell id="vSze7hh99SfQkh1K5WJs-5" value="- n_vitorias" style="text;strokeColor=none;fillColor=none;align=left;verticalAlign=top;spacingLeft=4;spacingRight=4;overflow=hidden;rotatable=0;points=[[0,0.5],[1,0.5]];portConstraint=eastwest;rounded=0;" parent="SLbIaxvjg7kRNYuyK55--54" vertex="1"><mxGeometry y="104" width="160" height="26" as="geometry"/></mxCell><mxCell id="vSze7hh99SfQkh1K5WJs-6" value="- n_derrotas" style="text;strokeColor=none;fillColor=none;align=left;verticalAlign=top;spacingLeft=4;spacingRight=4;overflow=hidden;rotatable=0;points=[[0,0.5],[1,0.5]];portConstraint=eastwest;rounded=0;" parent="SLbIaxvjg7kRNYuyK55--54" vertex="1"><mxGeometry y="130" width="160" height="26" as="geometry"/></mxCell><mxCell id="vSze7hh99SfQkh1K5WJs-8" value="- n_pontos_sofridos" style="text;strokeColor=none;fillColor=none;align=left;verticalAlign=top;spacingLeft=4;spacingRight=4;overflow=hidden;rotatable=0;points=[[0,0.5],[1,0.5]];portConstraint=eastwest;rounded=0;" parent="SLbIaxvjg7kRNYuyK55--54" vertex="1"><mxGeometry y="156" width="160" height="26" as="geometry"/></mxCell><mxCell id="vSze7hh99SfQkh1K5WJs-7" value="- n_pontos_marcados" style="text;strokeColor=none;fillColor=none;align=left;verticalAlign=top;spacingLeft=4;spacingRight=4;overflow=hidden;rotatable=0;points=[[0,0.5],[1,0.5]];portConstraint=eastwest;rounded=0;" parent="SLbIaxvjg7kRNYuyK55--54" vertex="1"><mxGeometry y="182" width="160" height="26" as="geometry"/></mxCell><mxCell id="107" value="- posicao" style="text;strokeColor=none;fillColor=none;align=left;verticalAlign=top;spacingLeft=4;spacingRight=4;overflow=hidden;rotatable=0;points=[[0,0.5],[1,0.5]];portConstraint=eastwest;rounded=0;" parent="SLbIaxvjg7kRNYuyK55--54" vertex="1"><mxGeometry y="208" width="160" height="26" as="geometry"/></mxCell><mxCell id="SLbIaxvjg7kRNYuyK55--58" value="Grupo" style="swimlane;fontStyle=1;align=center;verticalAlign=top;childLayout=stackLayout;horizontal=1;startSize=26;horizontalStack=0;resizeParent=1;resizeParentMax=0;resizeLast=0;collapsible=1;marginBottom=0;rounded=0;" parent="1" vertex="1"><mxGeometry x="570" width="160" height="52" as="geometry"/></mxCell><mxCell id="SLbIaxvjg7kRNYuyK55--61" value="- letra" style="text;strokeColor=none;fillColor=none;align=left;verticalAlign=top;spacingLeft=4;spacingRight=4;overflow=hidden;rotatable=0;points=[[0,0.5],[1,0.5]];portConstraint=eastwest;rounded=0;" parent="SLbIaxvjg7kRNYuyK55--58" vertex="1"><mxGeometry y="26" width="160" height="26" as="geometry"/></mxCell><mxCell id="SLbIaxvjg7kRNYuyK55--64" style="edgeStyle=orthogonalEdgeStyle;rounded=0;orthogonalLoop=1;jettySize=auto;html=1;entryX=0;entryY=0.75;entryDx=0;entryDy=0;endArrow=none;endFill=0;" parent="1" target="SLbIaxvjg7kRNYuyK55--58" edge="1"><mxGeometry relative="1" as="geometry"><Array as="points"><mxPoint x="570" y="46"/></Array><mxPoint x="482" y="46" as="sourcePoint"/></mxGeometry></mxCell><mxCell id="21" value="1" style="edgeLabel;html=1;align=center;verticalAlign=middle;resizable=0;points=[];rounded=0;" parent="SLbIaxvjg7kRNYuyK55--64" vertex="1" connectable="0"><mxGeometry x="-0.8982" y="2" relative="1" as="geometry"><mxPoint y="68" as="offset"/></mxGeometry></mxCell><mxCell id="22" value="1" style="edgeLabel;html=1;align=center;verticalAlign=middle;resizable=0;points=[];rounded=0;" parent="SLbIaxvjg7kRNYuyK55--64" vertex="1" connectable="0"><mxGeometry x="0.7" y="1" relative="1" as="geometry"><mxPoint y="-9" as="offset"/></mxGeometry></mxCell><mxCell id="7" value="Evento" style="swimlane;fontStyle=1;align=center;verticalAlign=top;childLayout=stackLayout;horizontal=1;startSize=26;horizontalStack=0;resizeParent=1;resizeParentMax=0;resizeLast=0;collapsible=1;marginBottom=0;rounded=0;" parent="1" vertex="1"><mxGeometry x="61" y="288" width="117" height="78" as="geometry"/></mxCell><mxCell id="8" value="- id_evento" style="text;strokeColor=none;fillColor=none;align=left;verticalAlign=top;spacingLeft=4;spacingRight=4;overflow=hidden;rotatable=0;points=[[0,0.5],[1,0.5]];portConstraint=eastwest;rounded=0;" parent="7" vertex="1"><mxGeometry y="26" width="117" height="26" as="geometry"/></mxCell><mxCell id="93" value="- minuto" style="text;strokeColor=none;fillColor=none;align=left;verticalAlign=top;spacingLeft=4;spacingRight=4;overflow=hidden;rotatable=0;points=[[0,0.5],[1,0.5]];portConstraint=eastwest;rounded=0;" parent="7" vertex="1"><mxGeometry y="52" width="117" height="26" as="geometry"/></mxCell><mxCell id="13" style="edgeStyle=orthogonalEdgeStyle;rounded=0;orthogonalLoop=1;jettySize=auto;html=1;entryX=1;entryY=0.5;entryDx=0;entryDy=0;endArrow=none;endFill=0;" parent="1" edge="1"><mxGeometry relative="1" as="geometry"><mxPoint x="141" y="427" as="sourcePoint"/><mxPoint x="63" y="427" as="targetPoint"/><Array as="points"><mxPoint x="176" y="427"/><mxPoint x="176" y="391"/><mxPoint x="63" y="391"/></Array></mxGeometry></mxCell><mxCell id="15" style="html=1;rounded=0;" parent="1" edge="1"><mxGeometry relative="1" as="geometry"><mxPoint x="119" y="365" as="targetPoint"/><mxPoint x="119" y="392" as="sourcePoint"/><Array as="points"><mxPoint x="119" y="392"/></Array></mxGeometry></mxCell><mxCell id="16" value="*" style="edgeLabel;resizable=0;html=1;align=left;verticalAlign=bottom;rounded=0;" parent="1" connectable="0" vertex="1"><mxGeometry x="380" y="444" as="geometry"><mxPoint x="-10" y="-5" as="offset"/></mxGeometry></mxCell><mxCell id="30" value="" style="endArrow=none;html=1;edgeStyle=orthogonalEdgeStyle;rounded=0;entryX=0;entryY=0.5;entryDx=0;entryDy=0;" parent="1" edge="1"><mxGeometry relative="1" as="geometry"><mxPoint x="481" y="553" as="sourcePoint"/><mxPoint x="570" y="553" as="targetPoint"/></mxGeometry></mxCell><mxCell id="31" value="*" style="edgeLabel;resizable=0;html=1;align=left;verticalAlign=bottom;rounded=0;" parent="30" connectable="0" vertex="1"><mxGeometry x="-1" relative="1" as="geometry"><mxPoint x="5" as="offset"/></mxGeometry></mxCell><mxCell id="32" value="1" style="edgeLabel;resizable=0;html=1;align=right;verticalAlign=bottom;rounded=0;" parent="30" connectable="0" vertex="1"><mxGeometry x="1" relative="1" as="geometry"><mxPoint x="-2" as="offset"/></mxGeometry></mxCell><mxCell id="49" value="" style="endArrow=none;dashed=1;html=1;entryX=0.222;entryY=1;entryDx=0;entryDy=0;entryPerimeter=0;" parent="1" target="94" edge="1"><mxGeometry width="50" height="50" relative="1" as="geometry"><mxPoint x="11" y="550" as="sourcePoint"/><mxPoint x="-11" y="479" as="targetPoint"/></mxGeometry></mxCell><mxCell id="51" value="&lt;div&gt;&lt;span&gt;&amp;nbsp; {0 &amp;lt;= quantidade &amp;lt;= 3&lt;/span&gt;&lt;/div&gt;&lt;div&gt;&lt;span&gt;&amp;nbsp; NOT NULL: quantidade&lt;/span&gt;&lt;/div&gt;&lt;span&gt;&amp;nbsp; PRIMARY KEY: id_ponto}&lt;/span&gt;" style="shape=note;whiteSpace=wrap;html=1;backgroundOutline=1;darkOpacity=0.05;align=left;" parent="1" vertex="1"><mxGeometry x="-51" y="553" width="166" height="51" as="geometry"/></mxCell><mxCell id="52" value="" style="endArrow=none;dashed=1;html=1;" parent="1" edge="1"><mxGeometry width="50" height="50" relative="1" as="geometry"><mxPoint x="729" y="343" as="sourcePoint"/><mxPoint x="786.5" y="342.8636893203884" as="targetPoint"/></mxGeometry></mxCell><mxCell id="53" value="&amp;nbsp; {1 &amp;lt;= posicao&amp;nbsp;&amp;lt;= 12&lt;br&gt;&amp;nbsp; n_jogos &amp;gt;= 0&lt;br&gt;&amp;nbsp; pontuacao &amp;gt;= 0&lt;br&gt;&amp;nbsp; n_vitorias &amp;gt;= 0&lt;br&gt;&amp;nbsp; n_derrotas &amp;gt;= 0&amp;nbsp;&lt;br&gt;&amp;nbsp; n_pontos_sofridos &amp;gt;= 0&lt;br&gt;&amp;nbsp; n_pontos_marcados &amp;gt;= 0&lt;br&gt;&amp;nbsp; NOT NULL: todos os atributos&lt;br&gt;PRIMARY KEY: id_estatistica}" style="shape=note;whiteSpace=wrap;html=1;backgroundOutline=1;darkOpacity=0.05;align=left;" parent="1" vertex="1"><mxGeometry x="785.5" y="280.38" width="187.5" height="134.62" as="geometry"/></mxCell><mxCell id="55" value="&amp;nbsp; {capacidade &amp;gt;= 0}&lt;br&gt;&amp;nbsp; PRIMARY KEY: id_pavilhao&lt;br&gt;&amp;nbsp; NOT NULL: morada}" style="shape=note;whiteSpace=wrap;html=1;backgroundOutline=1;darkOpacity=0.05;align=left;" parent="1" vertex="1"><mxGeometry x="785.5" y="122.25" width="177.5" height="73.75" as="geometry"/></mxCell><mxCell id="57" value="" style="endArrow=none;dashed=1;html=1;entryX=0;entryY=0.5;entryDx=0;entryDy=0;entryPerimeter=0;" parent="1" target="55" edge="1"><mxGeometry width="50" height="50" relative="1" as="geometry"><mxPoint x="728" y="159" as="sourcePoint"/><mxPoint x="796" y="144" as="targetPoint"/></mxGeometry></mxCell><mxCell id="58" value="" style="endArrow=none;dashed=1;html=1;exitX=0;exitY=0.5;exitDx=0;exitDy=0;exitPerimeter=0;" parent="1" source="59" edge="1"><mxGeometry width="50" height="50" relative="1" as="geometry"><mxPoint x="823" y="570" as="sourcePoint"/><mxPoint x="727" y="556" as="targetPoint"/></mxGeometry></mxCell><mxCell id="59" value="&amp;nbsp; {n_jogos &amp;gt;= 0&lt;br&gt;&amp;nbsp; PRIMARY KEY: ano}" style="shape=note;whiteSpace=wrap;html=1;backgroundOutline=1;darkOpacity=0.05;align=left;" parent="1" vertex="1"><mxGeometry x="785.5" y="528" width="177.5" height="55" as="geometry"/></mxCell><mxCell id="65" value="1" style="text;html=1;align=center;verticalAlign=middle;resizable=0;points=[];autosize=1;strokeColor=none;fillColor=none;" parent="1" vertex="1"><mxGeometry x="438" y="139" width="17" height="18" as="geometry"/></mxCell><mxCell id="66" value="1" style="text;html=1;align=center;verticalAlign=middle;resizable=0;points=[];autosize=1;strokeColor=none;fillColor=none;" parent="1" vertex="1"><mxGeometry x="549" y="239" width="17" height="18" as="geometry"/></mxCell><mxCell id="72" value="&lt;div style=&quot;text-align: left&quot;&gt;&lt;span&gt;&amp;nbsp; {&lt;/span&gt;&lt;span&gt;letra = 'A' or letra = 'B' or&amp;nbsp; &amp;nbsp; &amp;nbsp; &amp;nbsp; &amp;nbsp; &amp;nbsp; letra = 'C'&lt;/span&gt;&lt;/div&gt;&lt;div style=&quot;text-align: left&quot;&gt;&lt;span&gt;&amp;nbsp; NOT NULL: letra}&amp;nbsp;&lt;/span&gt;&lt;/div&gt;" style="shape=note;size=20;whiteSpace=wrap;html=1;" parent="1" vertex="1"><mxGeometry x="785.5" y="2.63" width="177.5" height="46.75" as="geometry"/></mxCell><mxCell id="73" value="" style="endArrow=none;dashed=1;html=1;entryX=0;entryY=0.5;entryDx=0;entryDy=0;entryPerimeter=0;" parent="1" target="72" edge="1"><mxGeometry width="50" height="50" relative="1" as="geometry"><mxPoint x="728" y="26" as="sourcePoint"/><mxPoint x="763" y="26" as="targetPoint"/></mxGeometry></mxCell><mxCell id="75" value="&lt;div style=&quot;text-align: left&quot;&gt;&lt;span&gt;&amp;nbsp; {&lt;/span&gt;PRIMARY KEY&lt;span&gt;:&amp;nbsp;&lt;/span&gt;&lt;span&gt;nr_licenca&lt;/span&gt;&lt;/div&gt;&lt;div style=&quot;text-align: left&quot;&gt;&lt;span&gt;&amp;nbsp; 150 &amp;lt;= altura &amp;lt;= 270&lt;/span&gt;&lt;br&gt;&lt;/div&gt;&lt;div style=&quot;text-align: left&quot;&gt;&lt;span&gt;&amp;nbsp; sexo = 'M'&lt;/span&gt;&lt;/div&gt;&lt;div style=&quot;text-align: left&quot;&gt;&lt;span&gt;&amp;nbsp; pontos_marcados &amp;gt;= 0&lt;/span&gt;&lt;/div&gt;&lt;span&gt;&lt;div style=&quot;text-align: left&quot;&gt;&lt;span&gt;&amp;nbsp; NOT NULL&lt;/span&gt;&lt;span&gt;: nome_jogador,&amp;nbsp; &amp;nbsp; &amp;nbsp; &amp;nbsp; &amp;nbsp; &amp;nbsp; nacionalidade, data_nascimento}&lt;/span&gt;&lt;/div&gt;&lt;/span&gt;" style="shape=note;size=20;whiteSpace=wrap;html=1;" parent="1" vertex="1"><mxGeometry x="-64.5" y="-126.5" width="187" height="99.5" as="geometry"/></mxCell><mxCell id="76" value="" style="endArrow=none;dashed=1;html=1;entryX=0.5;entryY=0;entryDx=0;entryDy=0;exitX=0.5;exitY=1;exitDx=0;exitDy=0;exitPerimeter=0;" parent="1" source="75" target="2FXM18CVwoB-Fw4CSE5F-6" edge="1"><mxGeometry width="50" height="50" relative="1" as="geometry"><mxPoint x="-83" y="98" as="sourcePoint"/><mxPoint x="-51.440000000000055" y="97.99399999999991" as="targetPoint"/></mxGeometry></mxCell><mxCell id="78" value="&lt;div style=&quot;text-align: left&quot;&gt;&lt;span&gt;{&lt;/span&gt;PRIMARY KEY&lt;span&gt;:&amp;nbsp;&lt;/span&gt;&lt;span&gt;nome_clube&lt;/span&gt;&lt;/div&gt;&lt;div style=&quot;text-align: left&quot;&gt;&lt;span&gt;NOT NULL: ano_fundacao, cidade, treinador}&lt;/span&gt;&lt;span&gt;&amp;nbsp; &amp;nbsp;&amp;nbsp;&lt;/span&gt;&lt;/div&gt;" style="shape=note;size=20;whiteSpace=wrap;html=1;" parent="1" vertex="1"><mxGeometry x="304" y="-93" width="191.76" height="66" as="geometry"/></mxCell><mxCell id="79" value="" style="endArrow=none;dashed=1;html=1;exitX=0.413;exitY=0;exitDx=0;exitDy=0;exitPerimeter=0;entryX=0.457;entryY=1.034;entryDx=0;entryDy=0;entryPerimeter=0;" parent="1" edge="1"><mxGeometry width="50" height="50" relative="1" as="geometry"><mxPoint x="395.0799999999999" as="sourcePoint"/><mxPoint x="395.2869999999998" y="-25.946000000000026" as="targetPoint"/></mxGeometry></mxCell><mxCell id="80" value="&lt;div&gt;&amp;nbsp; {&lt;span&gt;jornada &amp;gt;= 1&lt;/span&gt;&lt;/div&gt;&lt;div&gt;&lt;span&gt;&amp;nbsp; PRIMARY KEY: id_jogo&lt;/span&gt;&lt;/div&gt;&lt;div&gt;&lt;span&gt;&amp;nbsp; NOT NULL: jornada, visitante,&amp;nbsp; &amp;nbsp; &amp;nbsp; visitado, fase, data_jogo&lt;/span&gt;&lt;/div&gt;&lt;div&gt;&lt;span&gt;&amp;nbsp; visitante &amp;lt;&amp;gt; visitado}&lt;/span&gt;&lt;/div&gt;" style="shape=note;size=20;whiteSpace=wrap;html=1;align=left;" parent="1" vertex="1"><mxGeometry x="309.88" y="622" width="180.25" height="76" as="geometry"/></mxCell><mxCell id="81" value="" style="endArrow=none;dashed=1;html=1;" parent="1" edge="1"><mxGeometry width="50" height="50" relative="1" as="geometry"><mxPoint x="400" y="622" as="sourcePoint"/><mxPoint x="400" y="594" as="targetPoint"/></mxGeometry></mxCell><mxCell id="87" value="&amp;nbsp; {salario &amp;gt;= 0&lt;br&gt;&amp;nbsp; data_fim &amp;gt; data_inicio&lt;br&gt;&amp;nbsp; NOT NULL: data_fim,&amp;nbsp; &amp;nbsp; &amp;nbsp; &amp;nbsp; &amp;nbsp; salario}" style="shape=note;whiteSpace=wrap;html=1;backgroundOutline=1;darkOpacity=0.05;align=left;" parent="1" vertex="1"><mxGeometry x="136" y="207" width="151" height="61" as="geometry"/></mxCell><mxCell id="88" value="" style="endArrow=none;dashed=1;html=1;entryX=0.455;entryY=1.038;entryDx=0;entryDy=0;entryPerimeter=0;" parent="1" target="SLbIaxvjg7kRNYuyK55--14" edge="1"><mxGeometry width="50" height="50" relative="1" as="geometry"><mxPoint x="210" y="205" as="sourcePoint"/><mxPoint x="216" y="201" as="targetPoint"/></mxGeometry></mxCell><mxCell id="89" value="&amp;nbsp; {NOT NULL: minuto&lt;br&gt;&amp;nbsp; 0 &amp;lt;= minuto&amp;nbsp;&amp;lt; 40&lt;br&gt;&amp;nbsp; PRIMARY KEY: id_evento}" style="shape=note;whiteSpace=wrap;html=1;backgroundOutline=1;darkOpacity=0.05;align=left;" parent="1" vertex="1"><mxGeometry x="207" y="301.75" width="164" height="50.5" as="geometry"/></mxCell><mxCell id="90" value="" style="endArrow=none;dashed=1;html=1;exitX=1;exitY=0.5;exitDx=0;exitDy=0;entryX=0;entryY=0.5;entryDx=0;entryDy=0;entryPerimeter=0;" parent="1" source="8" target="89" edge="1"><mxGeometry width="50" height="50" relative="1" as="geometry"><mxPoint x="301" y="380" as="sourcePoint"/><mxPoint x="351" y="330" as="targetPoint"/></mxGeometry></mxCell><mxCell id="91" value="&amp;nbsp; {NOT NULL:&amp;nbsp;&lt;span&gt;jogador_saiu,&lt;br&gt;&lt;/span&gt;&lt;span&gt;&amp;nbsp; jogador_entrou&lt;br&gt;&lt;/span&gt;&amp;nbsp; PRIMARY KEY: id_substituicao}" style="shape=note;whiteSpace=wrap;html=1;backgroundOutline=1;darkOpacity=0.05;align=left;" parent="1" vertex="1"><mxGeometry x="127.88" y="553.5" width="182" height="50.5" as="geometry"/></mxCell><mxCell id="92" value="" style="endArrow=none;dashed=1;html=1;" parent="1" edge="1"><mxGeometry width="50" height="50" relative="1" as="geometry"><mxPoint x="178" y="551" as="sourcePoint"/><mxPoint x="178" y="532" as="targetPoint"/></mxGeometry></mxCell><mxCell id="0PqPpjBaGrEqAzcDgpsS-93" value="1" style="text;html=1;align=center;verticalAlign=middle;resizable=0;points=[];autosize=1;strokeColor=none;fillColor=none;" parent="1" vertex="1"><mxGeometry x="300" y="472" width="25" height="26" as="geometry"/></mxCell><mxCell id="0PqPpjBaGrEqAzcDgpsS-94" value="*" style="text;html=1;align=center;verticalAlign=middle;resizable=0;points=[];autosize=1;strokeColor=none;fillColor=none;" parent="1" vertex="1"><mxGeometry x="155" y="363" width="23" height="26" as="geometry"/></mxCell><mxCell id="96" style="edgeStyle=none;html=1;entryX=0.795;entryY=1;entryDx=0;entryDy=0;entryPerimeter=0;exitX=-0.012;exitY=1.077;exitDx=0;exitDy=0;exitPerimeter=0;rounded=0;endArrow=none;endFill=0;" parent="1" source="43" target="93" edge="1"><mxGeometry relative="1" as="geometry"><Array as="points"><mxPoint x="264" y="494"/><mxPoint x="264" y="380"/><mxPoint x="154" y="380"/></Array></mxGeometry></mxCell><mxCell id="97" value="1" style="text;html=1;align=center;verticalAlign=middle;resizable=0;points=[];autosize=1;strokeColor=none;fillColor=none;" parent="1" vertex="1"><mxGeometry x="399" y="139" width="17" height="18" as="geometry"/></mxCell><mxCell id="98" value="*" style="text;html=1;align=center;verticalAlign=middle;resizable=0;points=[];autosize=1;strokeColor=none;fillColor=none;" parent="1" vertex="1"><mxGeometry x="399" y="422" width="15" height="18" as="geometry"/></mxCell><mxCell id="100" value="*" style="text;html=1;align=center;verticalAlign=middle;resizable=0;points=[];autosize=1;strokeColor=none;fillColor=none;" parent="1" vertex="1"><mxGeometry x="633" y="474" width="15" height="18" as="geometry"/></mxCell><mxCell id="101" value="1" style="text;html=1;align=center;verticalAlign=middle;resizable=0;points=[];autosize=1;strokeColor=none;fillColor=none;" parent="1" vertex="1"><mxGeometry x="652" y="487" width="17" height="18" as="geometry"/></mxCell><mxCell id="104" style="edgeStyle=orthogonalEdgeStyle;html=1;entryX=0;entryY=0.5;entryDx=0;entryDy=0;exitX=1;exitY=0.5;exitDx=0;exitDy=0;rounded=0;endArrow=none;endFill=0;" parent="1" source="43" target="9e_5NHwTsUJd0ifScqXE-25" edge="1"><mxGeometry relative="1" as="geometry"><mxPoint x="478" y="490" as="sourcePoint"/></mxGeometry></mxCell><mxCell id="105" value="1" style="text;html=1;align=center;verticalAlign=middle;resizable=0;points=[];autosize=1;strokeColor=none;fillColor=none;" parent="1" vertex="1"><mxGeometry x="554" y="157" width="17" height="18" as="geometry"/></mxCell><mxCell id="106" value="1" style="text;html=1;align=center;verticalAlign=middle;resizable=0;points=[];autosize=1;strokeColor=none;fillColor=none;" parent="1" vertex="1"><mxGeometry x="479" y="458" width="17" height="18" as="geometry"/></mxCell></root></mxGraphModel></diagram></mxfile>
=======
<mxfile host="65bd71144e">
    <diagram id="huk61vHUiTfTEn5VBC3T" name="Página-1">
        <mxGraphModel dx="886" dy="1009" grid="0" gridSize="10" guides="1" tooltips="1" connect="1" arrows="1" fold="1" page="0" pageScale="1" pageWidth="827" pageHeight="1169" background="none" math="0" shadow="0">
            <root>
                <mxCell id="0"/>
                <mxCell id="1" parent="0"/>
                <mxCell id="SLbIaxvjg7kRNYuyK55--17" style="edgeStyle=orthogonalEdgeStyle;rounded=0;orthogonalLoop=1;jettySize=auto;html=1;entryX=0.5;entryY=0;entryDx=0;entryDy=0;endArrow=none;endFill=0;" parent="1" source="2FXM18CVwoB-Fw4CSE5F-6" target="2FXM18CVwoB-Fw4CSE5F-53" edge="1">
                    <mxGeometry relative="1" as="geometry">
                        <Array as="points">
                            <mxPoint x="29" y="427"/>
                        </Array>
                    </mxGeometry>
                </mxCell>
                <mxCell id="17" value="1" style="edgeLabel;html=1;align=center;verticalAlign=middle;resizable=0;points=[];rounded=0;" parent="SLbIaxvjg7kRNYuyK55--17" vertex="1" connectable="0">
                    <mxGeometry x="-0.8996" y="-1" relative="1" as="geometry">
                        <mxPoint x="-10" as="offset"/>
                    </mxGeometry>
                </mxCell>
                <mxCell id="18" value="*" style="edgeLabel;html=1;align=center;verticalAlign=middle;resizable=0;points=[];rounded=0;" parent="SLbIaxvjg7kRNYuyK55--17" vertex="1" connectable="0">
                    <mxGeometry x="0.8061" y="-3" relative="1" as="geometry">
                        <mxPoint x="-7" y="-1" as="offset"/>
                    </mxGeometry>
                </mxCell>
                <mxCell id="2FXM18CVwoB-Fw4CSE5F-6" value="Jogador" style="swimlane;fontStyle=1;align=center;verticalAlign=top;childLayout=stackLayout;horizontal=1;startSize=26;horizontalStack=0;resizeParent=1;resizeParentMax=0;resizeLast=0;collapsible=1;marginBottom=0;rounded=0;" parent="1" vertex="1">
                    <mxGeometry x="-51" width="160" height="208" as="geometry"/>
                </mxCell>
                <mxCell id="2FXM18CVwoB-Fw4CSE5F-58" value="- nr_licenca" style="text;strokeColor=none;fillColor=none;align=left;verticalAlign=top;spacingLeft=4;spacingRight=4;overflow=hidden;rotatable=0;points=[[0,0.5],[1,0.5]];portConstraint=eastwest;rounded=0;" parent="2FXM18CVwoB-Fw4CSE5F-6" vertex="1">
                    <mxGeometry y="26" width="160" height="26" as="geometry"/>
                </mxCell>
                <mxCell id="2FXM18CVwoB-Fw4CSE5F-64" value="- nome_jogador" style="text;strokeColor=none;fillColor=none;align=left;verticalAlign=top;spacingLeft=4;spacingRight=4;overflow=hidden;rotatable=0;points=[[0,0.5],[1,0.5]];portConstraint=eastwest;rounded=0;" parent="2FXM18CVwoB-Fw4CSE5F-6" vertex="1">
                    <mxGeometry y="52" width="160" height="26" as="geometry"/>
                </mxCell>
                <mxCell id="2FXM18CVwoB-Fw4CSE5F-65" value="- data_nascimento" style="text;strokeColor=none;fillColor=none;align=left;verticalAlign=top;spacingLeft=4;spacingRight=4;overflow=hidden;rotatable=0;points=[[0,0.5],[1,0.5]];portConstraint=eastwest;rounded=0;" parent="2FXM18CVwoB-Fw4CSE5F-6" vertex="1">
                    <mxGeometry y="78" width="160" height="26" as="geometry"/>
                </mxCell>
                <mxCell id="2FXM18CVwoB-Fw4CSE5F-67" value="- altura" style="text;strokeColor=none;fillColor=none;align=left;verticalAlign=top;spacingLeft=4;spacingRight=4;overflow=hidden;rotatable=0;points=[[0,0.5],[1,0.5]];portConstraint=eastwest;rounded=0;" parent="2FXM18CVwoB-Fw4CSE5F-6" vertex="1">
                    <mxGeometry y="104" width="160" height="26" as="geometry"/>
                </mxCell>
                <mxCell id="vSze7hh99SfQkh1K5WJs-11" value="- sexo" style="text;strokeColor=none;fillColor=none;align=left;verticalAlign=top;spacingLeft=4;spacingRight=4;overflow=hidden;rotatable=0;points=[[0,0.5],[1,0.5]];portConstraint=eastwest;rounded=0;" parent="2FXM18CVwoB-Fw4CSE5F-6" vertex="1">
                    <mxGeometry y="130" width="160" height="26" as="geometry"/>
                </mxCell>
                <mxCell id="9e_5NHwTsUJd0ifScqXE-55" value="- nacionalidade" style="text;strokeColor=none;fillColor=none;align=left;verticalAlign=top;spacingLeft=4;spacingRight=4;overflow=hidden;rotatable=0;points=[[0,0.5],[1,0.5]];portConstraint=eastwest;rounded=0;" parent="2FXM18CVwoB-Fw4CSE5F-6" vertex="1">
                    <mxGeometry y="156" width="160" height="26" as="geometry"/>
                </mxCell>
                <mxCell id="44" value="- pontos_marcados" style="text;strokeColor=none;fillColor=none;align=left;verticalAlign=top;spacingLeft=4;spacingRight=4;overflow=hidden;rotatable=0;points=[[0,0.5],[1,0.5]];portConstraint=eastwest;rounded=0;" parent="2FXM18CVwoB-Fw4CSE5F-6" vertex="1">
                    <mxGeometry y="182" width="160" height="26" as="geometry"/>
                </mxCell>
                <mxCell id="SLbIaxvjg7kRNYuyK55--51" style="edgeStyle=orthogonalEdgeStyle;shape=link;rounded=0;orthogonalLoop=1;jettySize=auto;html=1;entryX=0.5;entryY=0;entryDx=0;entryDy=0;endArrow=none;endFill=0;width=28.888888888888886;" parent="1" source="2FXM18CVwoB-Fw4CSE5F-10" target="2FXM18CVwoB-Fw4CSE5F-24" edge="1">
                    <mxGeometry relative="1" as="geometry"/>
                </mxCell>
                <mxCell id="3" value="visitante" style="edgeLabel;html=1;align=center;verticalAlign=middle;resizable=0;points=[];rounded=0;" parent="SLbIaxvjg7kRNYuyK55--51" vertex="1" connectable="0">
                    <mxGeometry x="-0.1577" y="-14" relative="1" as="geometry">
                        <mxPoint x="-32" y="18" as="offset"/>
                    </mxGeometry>
                </mxCell>
                <mxCell id="4" value="visitado" style="edgeLabel;html=1;align=center;verticalAlign=middle;resizable=0;points=[];rounded=0;" parent="SLbIaxvjg7kRNYuyK55--51" vertex="1" connectable="0">
                    <mxGeometry x="-0.1085" y="14" relative="1" as="geometry">
                        <mxPoint x="26" y="10" as="offset"/>
                    </mxGeometry>
                </mxCell>
                <mxCell id="34" value="1" style="edgeLabel;html=1;align=center;verticalAlign=middle;resizable=0;points=[];rounded=0;" parent="SLbIaxvjg7kRNYuyK55--51" vertex="1" connectable="0">
                    <mxGeometry x="-0.8912" y="-15" relative="1" as="geometry">
                        <mxPoint x="-7" y="-3" as="offset"/>
                    </mxGeometry>
                </mxCell>
                <mxCell id="2FXM18CVwoB-Fw4CSE5F-10" value="Clube" style="swimlane;fontStyle=1;align=center;verticalAlign=top;childLayout=stackLayout;horizontal=1;startSize=26;horizontalStack=0;resizeParent=1;resizeParentMax=0;resizeLast=0;collapsible=1;marginBottom=0;rounded=0;" parent="1" vertex="1">
                    <mxGeometry x="320" width="160" height="135" as="geometry"/>
                </mxCell>
                <mxCell id="2FXM18CVwoB-Fw4CSE5F-11" value="- nome_clube" style="text;strokeColor=none;fillColor=none;align=left;verticalAlign=top;spacingLeft=4;spacingRight=4;overflow=hidden;rotatable=0;points=[[0,0.5],[1,0.5]];portConstraint=eastwest;rounded=0;" parent="2FXM18CVwoB-Fw4CSE5F-10" vertex="1">
                    <mxGeometry y="26" width="160" height="26" as="geometry"/>
                </mxCell>
                <mxCell id="2FXM18CVwoB-Fw4CSE5F-69" value="- ano_fundacao" style="text;strokeColor=none;fillColor=none;align=left;verticalAlign=top;spacingLeft=4;spacingRight=4;overflow=hidden;rotatable=0;points=[[0,0.5],[1,0.5]];portConstraint=eastwest;rounded=0;" parent="2FXM18CVwoB-Fw4CSE5F-10" vertex="1">
                    <mxGeometry y="52" width="160" height="26" as="geometry"/>
                </mxCell>
                <mxCell id="9e_5NHwTsUJd0ifScqXE-1" value="- cidade" style="text;strokeColor=none;fillColor=none;align=left;verticalAlign=top;spacingLeft=4;spacingRight=4;overflow=hidden;rotatable=0;points=[[0,0.5],[1,0.5]];portConstraint=eastwest;rounded=0;" parent="2FXM18CVwoB-Fw4CSE5F-10" vertex="1">
                    <mxGeometry y="78" width="160" height="26" as="geometry"/>
                </mxCell>
                <mxCell id="9e_5NHwTsUJd0ifScqXE-2" value="- treinador" style="text;strokeColor=none;fillColor=none;align=left;verticalAlign=top;spacingLeft=4;spacingRight=4;overflow=hidden;rotatable=0;points=[[0,0.5],[1,0.5]];portConstraint=eastwest;rounded=0;" parent="2FXM18CVwoB-Fw4CSE5F-10" vertex="1">
                    <mxGeometry y="104" width="160" height="31" as="geometry"/>
                </mxCell>
                <mxCell id="2FXM18CVwoB-Fw4CSE5F-14" value="Pavilhao" style="swimlane;fontStyle=1;align=center;verticalAlign=top;childLayout=stackLayout;horizontal=1;startSize=26;horizontalStack=0;resizeParent=1;resizeParentMax=0;resizeLast=0;collapsible=1;marginBottom=0;rounded=0;" parent="1" vertex="1">
                    <mxGeometry x="570" y="91" width="160" height="104" as="geometry"/>
                </mxCell>
                <mxCell id="2FXM18CVwoB-Fw4CSE5F-15" value="- id_pavilhao" style="text;strokeColor=none;fillColor=none;align=left;verticalAlign=top;spacingLeft=4;spacingRight=4;overflow=hidden;rotatable=0;points=[[0,0.5],[1,0.5]];portConstraint=eastwest;rounded=0;" parent="2FXM18CVwoB-Fw4CSE5F-14" vertex="1">
                    <mxGeometry y="26" width="160" height="26" as="geometry"/>
                </mxCell>
                <mxCell id="2FXM18CVwoB-Fw4CSE5F-70" value="- morada" style="text;strokeColor=none;fillColor=none;align=left;verticalAlign=top;spacingLeft=4;spacingRight=4;overflow=hidden;rotatable=0;points=[[0,0.5],[1,0.5]];portConstraint=eastwest;rounded=0;" parent="2FXM18CVwoB-Fw4CSE5F-14" vertex="1">
                    <mxGeometry y="52" width="160" height="26" as="geometry"/>
                </mxCell>
                <mxCell id="9e_5NHwTsUJd0ifScqXE-25" value="- capacidade" style="text;strokeColor=none;fillColor=none;align=left;verticalAlign=top;spacingLeft=4;spacingRight=4;overflow=hidden;rotatable=0;points=[[0,0.5],[1,0.5]];portConstraint=eastwest;rounded=0;" parent="2FXM18CVwoB-Fw4CSE5F-14" vertex="1">
                    <mxGeometry y="78" width="160" height="26" as="geometry"/>
                </mxCell>
                <mxCell id="2FXM18CVwoB-Fw4CSE5F-21" value="" style="endArrow=none;html=1;edgeStyle=orthogonalEdgeStyle;rounded=0;exitX=1;exitY=0.5;exitDx=0;exitDy=0;entryX=0;entryY=0.5;entryDx=0;entryDy=0;" parent="1" source="2FXM18CVwoB-Fw4CSE5F-11" target="2FXM18CVwoB-Fw4CSE5F-15" edge="1">
                    <mxGeometry relative="1" as="geometry">
                        <mxPoint x="510" y="160" as="sourcePoint"/>
                        <mxPoint x="520" y="160" as="targetPoint"/>
                        <Array as="points">
                            <mxPoint x="480" y="123"/>
                            <mxPoint x="570" y="123"/>
                        </Array>
                    </mxGeometry>
                </mxCell>
                <mxCell id="2FXM18CVwoB-Fw4CSE5F-22" value="1" style="edgeLabel;resizable=0;html=1;align=left;verticalAlign=bottom;rounded=0;" parent="2FXM18CVwoB-Fw4CSE5F-21" connectable="0" vertex="1">
                    <mxGeometry x="-1" relative="1" as="geometry">
                        <mxPoint x="1" y="6" as="offset"/>
                    </mxGeometry>
                </mxCell>
                <mxCell id="2FXM18CVwoB-Fw4CSE5F-23" value="1" style="edgeLabel;resizable=0;html=1;align=right;verticalAlign=bottom;rounded=0;" parent="2FXM18CVwoB-Fw4CSE5F-21" connectable="0" vertex="1">
                    <mxGeometry x="1" relative="1" as="geometry">
                        <mxPoint x="-3" y="-10" as="offset"/>
                    </mxGeometry>
                </mxCell>
                <mxCell id="2FXM18CVwoB-Fw4CSE5F-24" value="Jogo" style="swimlane;fontStyle=1;align=center;verticalAlign=top;childLayout=stackLayout;horizontal=1;startSize=26;horizontalStack=0;resizeParent=1;resizeParentMax=0;resizeLast=0;collapsible=1;marginBottom=0;rounded=0;" parent="1" vertex="1">
                    <mxGeometry x="320" y="440" width="160" height="156" as="geometry"/>
                </mxCell>
                <mxCell id="43" value="- id_jogo" style="text;strokeColor=none;fillColor=none;align=left;verticalAlign=top;spacingLeft=4;spacingRight=4;overflow=hidden;rotatable=0;points=[[0,0.5],[1,0.5]];portConstraint=eastwest;rounded=0;" parent="2FXM18CVwoB-Fw4CSE5F-24" vertex="1">
                    <mxGeometry y="26" width="160" height="26" as="geometry"/>
                </mxCell>
                <mxCell id="2FXM18CVwoB-Fw4CSE5F-25" value="- jornada" style="text;strokeColor=none;fillColor=none;align=left;verticalAlign=top;spacingLeft=4;spacingRight=4;overflow=hidden;rotatable=0;points=[[0,0.5],[1,0.5]];portConstraint=eastwest;rounded=0;" parent="2FXM18CVwoB-Fw4CSE5F-24" vertex="1">
                    <mxGeometry y="52" width="160" height="26" as="geometry"/>
                </mxCell>
                <mxCell id="2FXM18CVwoB-Fw4CSE5F-37" value="- data_jogo" style="text;strokeColor=none;fillColor=none;align=left;verticalAlign=top;spacingLeft=4;spacingRight=4;overflow=hidden;rotatable=0;points=[[0,0.5],[1,0.5]];portConstraint=eastwest;rounded=0;" parent="2FXM18CVwoB-Fw4CSE5F-24" vertex="1">
                    <mxGeometry y="78" width="160" height="26" as="geometry"/>
                </mxCell>
                <mxCell id="2FXM18CVwoB-Fw4CSE5F-41" value="- resultado" style="text;strokeColor=none;fillColor=none;align=left;verticalAlign=top;spacingLeft=4;spacingRight=4;overflow=hidden;rotatable=0;points=[[0,0.5],[1,0.5]];portConstraint=eastwest;rounded=0;" parent="2FXM18CVwoB-Fw4CSE5F-24" vertex="1">
                    <mxGeometry y="104" width="160" height="26" as="geometry"/>
                </mxCell>
                <mxCell id="2FXM18CVwoB-Fw4CSE5F-38" value="- fase" style="text;strokeColor=none;fillColor=none;align=left;verticalAlign=top;spacingLeft=4;spacingRight=4;overflow=hidden;rotatable=0;points=[[0,0.5],[1,0.5]];portConstraint=eastwest;rounded=0;" parent="2FXM18CVwoB-Fw4CSE5F-24" vertex="1">
                    <mxGeometry y="130" width="160" height="26" as="geometry"/>
                </mxCell>
                <mxCell id="2FXM18CVwoB-Fw4CSE5F-48" value="Substituicao" style="swimlane;fontStyle=1;align=center;verticalAlign=top;childLayout=stackLayout;horizontal=1;startSize=26;horizontalStack=0;resizeParent=1;resizeParentMax=0;resizeLast=0;collapsible=1;marginBottom=0;rounded=0;" parent="1" vertex="1">
                    <mxGeometry x="120" y="427" width="121" height="104" as="geometry"/>
                </mxCell>
                <mxCell id="2FXM18CVwoB-Fw4CSE5F-51" value="- id_substituicao" style="text;strokeColor=none;fillColor=none;align=left;verticalAlign=top;spacingLeft=4;spacingRight=4;overflow=hidden;rotatable=0;points=[[0,0.5],[1,0.5]];portConstraint=eastwest;rounded=0;" parent="2FXM18CVwoB-Fw4CSE5F-48" vertex="1">
                    <mxGeometry y="26" width="121" height="26" as="geometry"/>
                </mxCell>
                <mxCell id="2FXM18CVwoB-Fw4CSE5F-59" value="- jogador_entrou" style="text;strokeColor=none;fillColor=none;align=left;verticalAlign=top;spacingLeft=4;spacingRight=4;overflow=hidden;rotatable=0;points=[[0,0.5],[1,0.5]];portConstraint=eastwest;rounded=0;" parent="2FXM18CVwoB-Fw4CSE5F-48" vertex="1">
                    <mxGeometry y="52" width="121" height="26" as="geometry"/>
                </mxCell>
                <mxCell id="95" value="- jogador_saiu" style="text;strokeColor=none;fillColor=none;align=left;verticalAlign=top;spacingLeft=4;spacingRight=4;overflow=hidden;rotatable=0;points=[[0,0.5],[1,0.5]];portConstraint=eastwest;rounded=0;" parent="2FXM18CVwoB-Fw4CSE5F-48" vertex="1">
                    <mxGeometry y="78" width="121" height="26" as="geometry"/>
                </mxCell>
                <mxCell id="2FXM18CVwoB-Fw4CSE5F-53" value="Ponto" style="swimlane;fontStyle=1;align=center;verticalAlign=top;childLayout=stackLayout;horizontal=1;startSize=26;horizontalStack=0;resizeParent=1;resizeParentMax=0;resizeLast=0;collapsible=1;marginBottom=0;rounded=0;" parent="1" vertex="1">
                    <mxGeometry x="-13" y="427" width="108" height="78" as="geometry"/>
                </mxCell>
                <mxCell id="SLbIaxvjg7kRNYuyK55--15" value="- id_ponto" style="text;strokeColor=none;fillColor=none;align=left;verticalAlign=top;spacingLeft=4;spacingRight=4;overflow=hidden;rotatable=0;points=[[0,0.5],[1,0.5]];portConstraint=eastwest;rounded=0;" parent="2FXM18CVwoB-Fw4CSE5F-53" vertex="1">
                    <mxGeometry y="26" width="108" height="26" as="geometry"/>
                </mxCell>
                <mxCell id="94" value="- quantidade" style="text;strokeColor=none;fillColor=none;align=left;verticalAlign=top;spacingLeft=4;spacingRight=4;overflow=hidden;rotatable=0;points=[[0,0.5],[1,0.5]];portConstraint=eastwest;rounded=0;" parent="2FXM18CVwoB-Fw4CSE5F-53" vertex="1">
                    <mxGeometry y="52" width="108" height="26" as="geometry"/>
                </mxCell>
                <mxCell id="9e_5NHwTsUJd0ifScqXE-26" value="" style="endArrow=none;html=1;edgeStyle=orthogonalEdgeStyle;rounded=0;exitX=1;exitY=0.5;exitDx=0;exitDy=0;entryX=0;entryY=0.5;entryDx=0;entryDy=0;" parent="1" source="2FXM18CVwoB-Fw4CSE5F-58" target="2FXM18CVwoB-Fw4CSE5F-11" edge="1">
                    <mxGeometry relative="1" as="geometry">
                        <mxPoint x="270" y="250" as="sourcePoint"/>
                        <mxPoint x="430" y="250" as="targetPoint"/>
                    </mxGeometry>
                </mxCell>
                <mxCell id="9e_5NHwTsUJd0ifScqXE-27" value="*" style="edgeLabel;resizable=0;html=1;align=left;verticalAlign=bottom;rounded=0;" parent="9e_5NHwTsUJd0ifScqXE-26" connectable="0" vertex="1">
                    <mxGeometry x="-1" relative="1" as="geometry">
                        <mxPoint x="5" as="offset"/>
                    </mxGeometry>
                </mxCell>
                <mxCell id="9e_5NHwTsUJd0ifScqXE-28" value="1" style="edgeLabel;resizable=0;html=1;align=right;verticalAlign=bottom;rounded=0;" parent="9e_5NHwTsUJd0ifScqXE-26" connectable="0" vertex="1">
                    <mxGeometry x="1" relative="1" as="geometry">
                        <mxPoint x="-2" as="offset"/>
                    </mxGeometry>
                </mxCell>
                <mxCell id="9e_5NHwTsUJd0ifScqXE-29" value="" style="endArrow=none;html=1;edgeStyle=orthogonalEdgeStyle;rounded=0;exitX=1;exitY=0.5;exitDx=0;exitDy=0;entryX=0.512;entryY=1.03;entryDx=0;entryDy=0;entryPerimeter=0;" parent="1" source="2FXM18CVwoB-Fw4CSE5F-25" target="9e_5NHwTsUJd0ifScqXE-25" edge="1">
                    <mxGeometry relative="1" as="geometry">
                        <mxPoint x="270" y="250" as="sourcePoint"/>
                        <mxPoint x="630" y="160" as="targetPoint"/>
                        <Array as="points">
                            <mxPoint x="480" y="479"/>
                            <mxPoint x="527" y="479"/>
                            <mxPoint x="527" y="163"/>
                            <mxPoint x="570" y="163"/>
                            <mxPoint x="570" y="196"/>
                        </Array>
                    </mxGeometry>
                </mxCell>
                <mxCell id="9e_5NHwTsUJd0ifScqXE-30" value="1" style="edgeLabel;resizable=0;html=1;align=left;verticalAlign=bottom;rounded=0;" parent="9e_5NHwTsUJd0ifScqXE-29" connectable="0" vertex="1">
                    <mxGeometry x="-1" relative="1" as="geometry">
                        <mxPoint x="3" y="-5" as="offset"/>
                    </mxGeometry>
                </mxCell>
                <mxCell id="9e_5NHwTsUJd0ifScqXE-31" value="1" style="edgeLabel;resizable=0;html=1;align=right;verticalAlign=bottom;rounded=0;" parent="9e_5NHwTsUJd0ifScqXE-29" connectable="0" vertex="1">
                    <mxGeometry x="1" relative="1" as="geometry">
                        <mxPoint x="-87" y="-14" as="offset"/>
                    </mxGeometry>
                </mxCell>
                <mxCell id="9e_5NHwTsUJd0ifScqXE-44" value="Campeonato" style="swimlane;fontStyle=1;align=center;verticalAlign=top;childLayout=stackLayout;horizontal=1;startSize=26;horizontalStack=0;resizeParent=1;resizeParentMax=0;resizeLast=0;collapsible=1;marginBottom=0;rounded=0;" parent="1" vertex="1">
                    <mxGeometry x="570" y="505" width="160" height="78" as="geometry"/>
                </mxCell>
                <mxCell id="9e_5NHwTsUJd0ifScqXE-53" value="- ano" style="text;strokeColor=none;fillColor=none;align=left;verticalAlign=top;spacingLeft=4;spacingRight=4;overflow=hidden;rotatable=0;points=[[0,0.5],[1,0.5]];portConstraint=eastwest;rounded=0;" parent="9e_5NHwTsUJd0ifScqXE-44" vertex="1">
                    <mxGeometry y="26" width="160" height="26" as="geometry"/>
                </mxCell>
                <mxCell id="33" value="- n_jogos" style="text;strokeColor=none;fillColor=none;align=left;verticalAlign=top;spacingLeft=4;spacingRight=4;overflow=hidden;rotatable=0;points=[[0,0.5],[1,0.5]];portConstraint=eastwest;rounded=0;" parent="9e_5NHwTsUJd0ifScqXE-44" vertex="1">
                    <mxGeometry y="52" width="160" height="26" as="geometry"/>
                </mxCell>
                <mxCell id="SLbIaxvjg7kRNYuyK55--13" style="edgeStyle=orthogonalEdgeStyle;rounded=0;orthogonalLoop=1;jettySize=auto;html=1;dashed=1;endArrow=none;endFill=0;" parent="1" edge="1">
                    <mxGeometry relative="1" as="geometry">
                        <mxPoint x="213" y="39" as="targetPoint"/>
                        <mxPoint x="213" y="80" as="sourcePoint"/>
                    </mxGeometry>
                </mxCell>
                <mxCell id="SLbIaxvjg7kRNYuyK55--8" value="Contrato" style="swimlane;fontStyle=1;align=center;verticalAlign=top;childLayout=stackLayout;horizontal=1;startSize=26;horizontalStack=0;resizeParent=1;resizeParentMax=0;resizeLast=0;collapsible=1;marginBottom=0;rounded=0;" parent="1" vertex="1">
                    <mxGeometry x="160" y="80" width="110" height="104" as="geometry"/>
                </mxCell>
                <mxCell id="SLbIaxvjg7kRNYuyK55--9" value="- data_inicio" style="text;strokeColor=none;fillColor=none;align=left;verticalAlign=top;spacingLeft=4;spacingRight=4;overflow=hidden;rotatable=0;points=[[0,0.5],[1,0.5]];portConstraint=eastwest;rounded=0;" parent="SLbIaxvjg7kRNYuyK55--8" vertex="1">
                    <mxGeometry y="26" width="110" height="26" as="geometry"/>
                </mxCell>
                <mxCell id="SLbIaxvjg7kRNYuyK55--12" value="- data_fim" style="text;strokeColor=none;fillColor=none;align=left;verticalAlign=top;spacingLeft=4;spacingRight=4;overflow=hidden;rotatable=0;points=[[0,0.5],[1,0.5]];portConstraint=eastwest;rounded=0;" parent="SLbIaxvjg7kRNYuyK55--8" vertex="1">
                    <mxGeometry y="52" width="110" height="26" as="geometry"/>
                </mxCell>
                <mxCell id="SLbIaxvjg7kRNYuyK55--14" value="- salario" style="text;strokeColor=none;fillColor=none;align=left;verticalAlign=top;spacingLeft=4;spacingRight=4;overflow=hidden;rotatable=0;points=[[0,0.5],[1,0.5]];portConstraint=eastwest;rounded=0;" parent="SLbIaxvjg7kRNYuyK55--8" vertex="1">
                    <mxGeometry y="78" width="110" height="26" as="geometry"/>
                </mxCell>
                <mxCell id="64" style="edgeStyle=none;rounded=0;html=1;endArrow=none;endFill=0;strokeColor=default;entryX=0.731;entryY=1.038;entryDx=0;entryDy=0;entryPerimeter=0;" parent="1" target="9e_5NHwTsUJd0ifScqXE-2" edge="1">
                    <mxGeometry relative="1" as="geometry">
                        <mxPoint x="437" y="127" as="targetPoint"/>
                        <Array as="points">
                            <mxPoint x="437" y="260"/>
                        </Array>
                        <mxPoint x="570" y="260" as="sourcePoint"/>
                    </mxGeometry>
                </mxCell>
                <mxCell id="SLbIaxvjg7kRNYuyK55--54" value="EstatisticasClube" style="swimlane;fontStyle=1;align=center;verticalAlign=top;childLayout=stackLayout;horizontal=1;startSize=26;horizontalStack=0;resizeParent=1;resizeParentMax=0;resizeLast=0;collapsible=1;marginBottom=0;rounded=0;" parent="1" vertex="1">
                    <mxGeometry x="570" y="240" width="160" height="208" as="geometry"/>
                </mxCell>
                <mxCell id="2" value="- posicao" style="text;strokeColor=none;fillColor=none;align=left;verticalAlign=top;spacingLeft=4;spacingRight=4;overflow=hidden;rotatable=0;points=[[0,0.5],[1,0.5]];portConstraint=eastwest;rounded=0;" parent="SLbIaxvjg7kRNYuyK55--54" vertex="1">
                    <mxGeometry y="26" width="160" height="26" as="geometry"/>
                </mxCell>
                <mxCell id="vSze7hh99SfQkh1K5WJs-4" value="- n_jogos" style="text;strokeColor=none;fillColor=none;align=left;verticalAlign=top;spacingLeft=4;spacingRight=4;overflow=hidden;rotatable=0;points=[[0,0.5],[1,0.5]];portConstraint=eastwest;rounded=0;" parent="SLbIaxvjg7kRNYuyK55--54" vertex="1">
                    <mxGeometry y="52" width="160" height="26" as="geometry"/>
                </mxCell>
                <mxCell id="vSze7hh99SfQkh1K5WJs-3" value="- pontuacao" style="text;strokeColor=none;fillColor=none;align=left;verticalAlign=top;spacingLeft=4;spacingRight=4;overflow=hidden;rotatable=0;points=[[0,0.5],[1,0.5]];portConstraint=eastwest;rounded=0;" parent="SLbIaxvjg7kRNYuyK55--54" vertex="1">
                    <mxGeometry y="78" width="160" height="26" as="geometry"/>
                </mxCell>
                <mxCell id="vSze7hh99SfQkh1K5WJs-5" value="- n_vitorias" style="text;strokeColor=none;fillColor=none;align=left;verticalAlign=top;spacingLeft=4;spacingRight=4;overflow=hidden;rotatable=0;points=[[0,0.5],[1,0.5]];portConstraint=eastwest;rounded=0;" parent="SLbIaxvjg7kRNYuyK55--54" vertex="1">
                    <mxGeometry y="104" width="160" height="26" as="geometry"/>
                </mxCell>
                <mxCell id="vSze7hh99SfQkh1K5WJs-6" value="- n_derrotas" style="text;strokeColor=none;fillColor=none;align=left;verticalAlign=top;spacingLeft=4;spacingRight=4;overflow=hidden;rotatable=0;points=[[0,0.5],[1,0.5]];portConstraint=eastwest;rounded=0;" parent="SLbIaxvjg7kRNYuyK55--54" vertex="1">
                    <mxGeometry y="130" width="160" height="26" as="geometry"/>
                </mxCell>
                <mxCell id="vSze7hh99SfQkh1K5WJs-8" value="- n_pontos_sofridos" style="text;strokeColor=none;fillColor=none;align=left;verticalAlign=top;spacingLeft=4;spacingRight=4;overflow=hidden;rotatable=0;points=[[0,0.5],[1,0.5]];portConstraint=eastwest;rounded=0;" parent="SLbIaxvjg7kRNYuyK55--54" vertex="1">
                    <mxGeometry y="156" width="160" height="26" as="geometry"/>
                </mxCell>
                <mxCell id="vSze7hh99SfQkh1K5WJs-7" value="- n_pontos_marcados" style="text;strokeColor=none;fillColor=none;align=left;verticalAlign=top;spacingLeft=4;spacingRight=4;overflow=hidden;rotatable=0;points=[[0,0.5],[1,0.5]];portConstraint=eastwest;rounded=0;" parent="SLbIaxvjg7kRNYuyK55--54" vertex="1">
                    <mxGeometry y="182" width="160" height="26" as="geometry"/>
                </mxCell>
                <mxCell id="SLbIaxvjg7kRNYuyK55--58" value="Grupo" style="swimlane;fontStyle=1;align=center;verticalAlign=top;childLayout=stackLayout;horizontal=1;startSize=26;horizontalStack=0;resizeParent=1;resizeParentMax=0;resizeLast=0;collapsible=1;marginBottom=0;rounded=0;" parent="1" vertex="1">
                    <mxGeometry x="570" width="160" height="52" as="geometry"/>
                </mxCell>
                <mxCell id="SLbIaxvjg7kRNYuyK55--61" value="- letra" style="text;strokeColor=none;fillColor=none;align=left;verticalAlign=top;spacingLeft=4;spacingRight=4;overflow=hidden;rotatable=0;points=[[0,0.5],[1,0.5]];portConstraint=eastwest;rounded=0;" parent="SLbIaxvjg7kRNYuyK55--58" vertex="1">
                    <mxGeometry y="26" width="160" height="26" as="geometry"/>
                </mxCell>
                <mxCell id="SLbIaxvjg7kRNYuyK55--64" style="edgeStyle=orthogonalEdgeStyle;rounded=0;orthogonalLoop=1;jettySize=auto;html=1;entryX=0;entryY=0.75;entryDx=0;entryDy=0;endArrow=none;endFill=0;" parent="1" target="SLbIaxvjg7kRNYuyK55--58" edge="1">
                    <mxGeometry relative="1" as="geometry">
                        <Array as="points">
                            <mxPoint x="570" y="46"/>
                        </Array>
                        <mxPoint x="482" y="46" as="sourcePoint"/>
                    </mxGeometry>
                </mxCell>
                <mxCell id="21" value="1" style="edgeLabel;html=1;align=center;verticalAlign=middle;resizable=0;points=[];rounded=0;" parent="SLbIaxvjg7kRNYuyK55--64" vertex="1" connectable="0">
                    <mxGeometry x="-0.8982" y="2" relative="1" as="geometry">
                        <mxPoint y="68" as="offset"/>
                    </mxGeometry>
                </mxCell>
                <mxCell id="22" value="1" style="edgeLabel;html=1;align=center;verticalAlign=middle;resizable=0;points=[];rounded=0;" parent="SLbIaxvjg7kRNYuyK55--64" vertex="1" connectable="0">
                    <mxGeometry x="0.7" y="1" relative="1" as="geometry">
                        <mxPoint y="-9" as="offset"/>
                    </mxGeometry>
                </mxCell>
                <mxCell id="7" value="Evento" style="swimlane;fontStyle=1;align=center;verticalAlign=top;childLayout=stackLayout;horizontal=1;startSize=26;horizontalStack=0;resizeParent=1;resizeParentMax=0;resizeLast=0;collapsible=1;marginBottom=0;rounded=0;" parent="1" vertex="1">
                    <mxGeometry x="61" y="288" width="117" height="78" as="geometry"/>
                </mxCell>
                <mxCell id="8" value="- id_evento" style="text;strokeColor=none;fillColor=none;align=left;verticalAlign=top;spacingLeft=4;spacingRight=4;overflow=hidden;rotatable=0;points=[[0,0.5],[1,0.5]];portConstraint=eastwest;rounded=0;" parent="7" vertex="1">
                    <mxGeometry y="26" width="117" height="26" as="geometry"/>
                </mxCell>
                <mxCell id="93" value="- minuto" style="text;strokeColor=none;fillColor=none;align=left;verticalAlign=top;spacingLeft=4;spacingRight=4;overflow=hidden;rotatable=0;points=[[0,0.5],[1,0.5]];portConstraint=eastwest;rounded=0;" parent="7" vertex="1">
                    <mxGeometry y="52" width="117" height="26" as="geometry"/>
                </mxCell>
                <mxCell id="13" style="edgeStyle=orthogonalEdgeStyle;rounded=0;orthogonalLoop=1;jettySize=auto;html=1;entryX=1;entryY=0.5;entryDx=0;entryDy=0;endArrow=none;endFill=0;" parent="1" edge="1">
                    <mxGeometry relative="1" as="geometry">
                        <mxPoint x="141" y="427" as="sourcePoint"/>
                        <mxPoint x="63" y="427" as="targetPoint"/>
                        <Array as="points">
                            <mxPoint x="176" y="427"/>
                            <mxPoint x="176" y="391"/>
                            <mxPoint x="63" y="391"/>
                        </Array>
                    </mxGeometry>
                </mxCell>
                <mxCell id="15" style="html=1;rounded=0;" parent="1" edge="1">
                    <mxGeometry relative="1" as="geometry">
                        <mxPoint x="119" y="365" as="targetPoint"/>
                        <mxPoint x="119" y="392" as="sourcePoint"/>
                        <Array as="points">
                            <mxPoint x="119" y="392"/>
                        </Array>
                    </mxGeometry>
                </mxCell>
                <mxCell id="16" value="*" style="edgeLabel;resizable=0;html=1;align=left;verticalAlign=bottom;rounded=0;" parent="1" connectable="0" vertex="1">
                    <mxGeometry x="380" y="444" as="geometry">
                        <mxPoint x="-10" y="-5" as="offset"/>
                    </mxGeometry>
                </mxCell>
                <mxCell id="30" value="" style="endArrow=none;html=1;edgeStyle=orthogonalEdgeStyle;rounded=0;entryX=0;entryY=0.5;entryDx=0;entryDy=0;" parent="1" edge="1">
                    <mxGeometry relative="1" as="geometry">
                        <mxPoint x="481" y="553" as="sourcePoint"/>
                        <mxPoint x="570" y="553" as="targetPoint"/>
                    </mxGeometry>
                </mxCell>
                <mxCell id="31" value="*" style="edgeLabel;resizable=0;html=1;align=left;verticalAlign=bottom;rounded=0;" parent="30" connectable="0" vertex="1">
                    <mxGeometry x="-1" relative="1" as="geometry">
                        <mxPoint x="5" as="offset"/>
                    </mxGeometry>
                </mxCell>
                <mxCell id="32" value="1" style="edgeLabel;resizable=0;html=1;align=right;verticalAlign=bottom;rounded=0;" parent="30" connectable="0" vertex="1">
                    <mxGeometry x="1" relative="1" as="geometry">
                        <mxPoint x="-2" as="offset"/>
                    </mxGeometry>
                </mxCell>
                <mxCell id="49" value="" style="endArrow=none;dashed=1;html=1;entryX=0.222;entryY=1;entryDx=0;entryDy=0;entryPerimeter=0;" parent="1" target="94" edge="1">
                    <mxGeometry width="50" height="50" relative="1" as="geometry">
                        <mxPoint x="11" y="550" as="sourcePoint"/>
                        <mxPoint x="-11" y="479" as="targetPoint"/>
                    </mxGeometry>
                </mxCell>
                <mxCell id="51" value="&lt;div&gt;&lt;span&gt;&amp;nbsp; {0 &amp;lt;= quantidade &amp;lt;= 3&lt;/span&gt;&lt;/div&gt;&lt;div&gt;&lt;span&gt;&amp;nbsp; NOT NULL: quantidade&lt;/span&gt;&lt;/div&gt;&lt;span&gt;&amp;nbsp; PRIMARY KEY: id_ponto}&lt;/span&gt;" style="shape=note;whiteSpace=wrap;html=1;backgroundOutline=1;darkOpacity=0.05;align=left;" parent="1" vertex="1">
                    <mxGeometry x="-51" y="553" width="166" height="51" as="geometry"/>
                </mxCell>
                <mxCell id="52" value="" style="endArrow=none;dashed=1;html=1;" parent="1" edge="1">
                    <mxGeometry width="50" height="50" relative="1" as="geometry">
                        <mxPoint x="729" y="343" as="sourcePoint"/>
                        <mxPoint x="786.5" y="342.8636893203884" as="targetPoint"/>
                    </mxGeometry>
                </mxCell>
                <mxCell id="53" value="&amp;nbsp; {1 &amp;lt;= posicao&amp;nbsp;&amp;lt;= 12&lt;br&gt;&amp;nbsp; n_jogos &amp;gt;= 0&lt;br&gt;&amp;nbsp; pontuacao &amp;gt;= 0&lt;br&gt;&amp;nbsp; n_vitorias &amp;gt;= 0&lt;br&gt;&amp;nbsp; n_derrotas &amp;gt;= 0&amp;nbsp;&lt;br&gt;&amp;nbsp; n_pontos_sofridos &amp;gt;= 0&lt;br&gt;&amp;nbsp; n_pontos_marcados &amp;gt;= 0&lt;br&gt;&amp;nbsp; NOT NULL: todos os atributos}" style="shape=note;whiteSpace=wrap;html=1;backgroundOutline=1;darkOpacity=0.05;align=left;" parent="1" vertex="1">
                    <mxGeometry x="785.5" y="280.38" width="177.5" height="127.25" as="geometry"/>
                </mxCell>
                <mxCell id="55" value="&amp;nbsp; {capacidade &amp;gt;= 0}&lt;br&gt;&amp;nbsp; PRIMARY KEY: id_pavilhao&lt;br&gt;&amp;nbsp; NOT NULL: morada}" style="shape=note;whiteSpace=wrap;html=1;backgroundOutline=1;darkOpacity=0.05;align=left;" parent="1" vertex="1">
                    <mxGeometry x="785.5" y="122.25" width="177.5" height="73.75" as="geometry"/>
                </mxCell>
                <mxCell id="57" value="" style="endArrow=none;dashed=1;html=1;entryX=0;entryY=0.5;entryDx=0;entryDy=0;entryPerimeter=0;" parent="1" target="55" edge="1">
                    <mxGeometry width="50" height="50" relative="1" as="geometry">
                        <mxPoint x="728" y="159" as="sourcePoint"/>
                        <mxPoint x="796" y="144" as="targetPoint"/>
                    </mxGeometry>
                </mxCell>
                <mxCell id="58" value="" style="endArrow=none;dashed=1;html=1;exitX=0;exitY=0.5;exitDx=0;exitDy=0;exitPerimeter=0;" parent="1" source="59" edge="1">
                    <mxGeometry width="50" height="50" relative="1" as="geometry">
                        <mxPoint x="823" y="570" as="sourcePoint"/>
                        <mxPoint x="727" y="556" as="targetPoint"/>
                    </mxGeometry>
                </mxCell>
                <mxCell id="59" value="&amp;nbsp; {n_jogos &amp;gt;= 0&lt;br&gt;&amp;nbsp; PRIMARY KEY: ano}" style="shape=note;whiteSpace=wrap;html=1;backgroundOutline=1;darkOpacity=0.05;align=left;" parent="1" vertex="1">
                    <mxGeometry x="785.5" y="528" width="177.5" height="55" as="geometry"/>
                </mxCell>
                <mxCell id="65" value="1" style="text;html=1;align=center;verticalAlign=middle;resizable=0;points=[];autosize=1;strokeColor=none;fillColor=none;" parent="1" vertex="1">
                    <mxGeometry x="438" y="139" width="17" height="18" as="geometry"/>
                </mxCell>
                <mxCell id="66" value="1" style="text;html=1;align=center;verticalAlign=middle;resizable=0;points=[];autosize=1;strokeColor=none;fillColor=none;" parent="1" vertex="1">
                    <mxGeometry x="549" y="239" width="17" height="18" as="geometry"/>
                </mxCell>
                <mxCell id="72" value="&lt;div style=&quot;text-align: left&quot;&gt;&lt;span&gt;&amp;nbsp; {&lt;/span&gt;&lt;span&gt;letra = 'A' or letra = 'B' or&amp;nbsp; &amp;nbsp; &amp;nbsp; &amp;nbsp; &amp;nbsp; &amp;nbsp; letra = 'C'&lt;/span&gt;&lt;/div&gt;&lt;div style=&quot;text-align: left&quot;&gt;&lt;span&gt;&amp;nbsp; NOT NULL: letra}&amp;nbsp;&lt;/span&gt;&lt;/div&gt;" style="shape=note;size=20;whiteSpace=wrap;html=1;" parent="1" vertex="1">
                    <mxGeometry x="785.5" y="2.63" width="177.5" height="46.75" as="geometry"/>
                </mxCell>
                <mxCell id="73" value="" style="endArrow=none;dashed=1;html=1;entryX=0;entryY=0.5;entryDx=0;entryDy=0;entryPerimeter=0;" parent="1" target="72" edge="1">
                    <mxGeometry width="50" height="50" relative="1" as="geometry">
                        <mxPoint x="728" y="26" as="sourcePoint"/>
                        <mxPoint x="763" y="26" as="targetPoint"/>
                    </mxGeometry>
                </mxCell>
                <mxCell id="75" value="&lt;div style=&quot;text-align: left&quot;&gt;&lt;span&gt;&amp;nbsp; {&lt;/span&gt;PRIMARY KEY&lt;span&gt;:&amp;nbsp;&lt;/span&gt;&lt;span&gt;nr_licenca&lt;/span&gt;&lt;/div&gt;&lt;div style=&quot;text-align: left&quot;&gt;&lt;span&gt;&amp;nbsp; 150 &amp;lt;= altura &amp;lt;= 270&lt;/span&gt;&lt;br&gt;&lt;/div&gt;&lt;div style=&quot;text-align: left&quot;&gt;&lt;span&gt;&amp;nbsp; sexo = 'M'&lt;/span&gt;&lt;/div&gt;&lt;div style=&quot;text-align: left&quot;&gt;&lt;span&gt;&amp;nbsp; pontos_marcados &amp;gt;= 0&lt;/span&gt;&lt;/div&gt;&lt;span&gt;&lt;div style=&quot;text-align: left&quot;&gt;&lt;span&gt;&amp;nbsp; NOT NULL&lt;/span&gt;&lt;span&gt;: nome_jogador,&amp;nbsp; &amp;nbsp; &amp;nbsp; &amp;nbsp; &amp;nbsp; &amp;nbsp; nacionalidade, data_nascimento}&lt;/span&gt;&lt;/div&gt;&lt;/span&gt;" style="shape=note;size=20;whiteSpace=wrap;html=1;" parent="1" vertex="1">
                    <mxGeometry x="-64.5" y="-126.5" width="187" height="99.5" as="geometry"/>
                </mxCell>
                <mxCell id="76" value="" style="endArrow=none;dashed=1;html=1;entryX=0.5;entryY=0;entryDx=0;entryDy=0;exitX=0.5;exitY=1;exitDx=0;exitDy=0;exitPerimeter=0;" parent="1" source="75" target="2FXM18CVwoB-Fw4CSE5F-6" edge="1">
                    <mxGeometry width="50" height="50" relative="1" as="geometry">
                        <mxPoint x="-83" y="98" as="sourcePoint"/>
                        <mxPoint x="-51.440000000000055" y="97.99399999999991" as="targetPoint"/>
                    </mxGeometry>
                </mxCell>
                <mxCell id="78" value="&lt;div style=&quot;text-align: left&quot;&gt;&lt;span&gt;{&lt;/span&gt;PRIMARY KEY&lt;span&gt;:&amp;nbsp;&lt;/span&gt;&lt;span&gt;nome_clube&lt;/span&gt;&lt;/div&gt;&lt;div style=&quot;text-align: left&quot;&gt;&lt;span&gt;NOT NULL: ano_fundacao, cidade, treinador}&lt;/span&gt;&lt;span&gt;&amp;nbsp; &amp;nbsp;&amp;nbsp;&lt;/span&gt;&lt;/div&gt;" style="shape=note;size=20;whiteSpace=wrap;html=1;" parent="1" vertex="1">
                    <mxGeometry x="304" y="-93" width="191.76" height="66" as="geometry"/>
                </mxCell>
                <mxCell id="79" value="" style="endArrow=none;dashed=1;html=1;exitX=0.413;exitY=0;exitDx=0;exitDy=0;exitPerimeter=0;entryX=0.457;entryY=1.034;entryDx=0;entryDy=0;entryPerimeter=0;" parent="1" edge="1">
                    <mxGeometry width="50" height="50" relative="1" as="geometry">
                        <mxPoint x="395.0799999999999" as="sourcePoint"/>
                        <mxPoint x="395.2869999999998" y="-25.946000000000026" as="targetPoint"/>
                    </mxGeometry>
                </mxCell>
                <mxCell id="80" value="&lt;div&gt;&amp;nbsp; {&lt;span&gt;jornada &amp;gt;= 1&lt;/span&gt;&lt;/div&gt;&lt;div&gt;&lt;span&gt;&amp;nbsp; PRIMARY KEY: id_jogo&lt;/span&gt;&lt;/div&gt;&lt;div&gt;&lt;span&gt;&amp;nbsp; NOT NULL: jornada, visitante,&amp;nbsp; &amp;nbsp; &amp;nbsp; visitado, fase, data_jogo&lt;/span&gt;&lt;/div&gt;&lt;div&gt;&lt;span&gt;&amp;nbsp; visitante &amp;lt;&amp;gt; visitado}&lt;/span&gt;&lt;/div&gt;" style="shape=note;size=20;whiteSpace=wrap;html=1;align=left;" parent="1" vertex="1">
                    <mxGeometry x="309.88" y="622" width="180.25" height="76" as="geometry"/>
                </mxCell>
                <mxCell id="81" value="" style="endArrow=none;dashed=1;html=1;" parent="1" edge="1">
                    <mxGeometry width="50" height="50" relative="1" as="geometry">
                        <mxPoint x="400" y="622" as="sourcePoint"/>
                        <mxPoint x="400" y="594" as="targetPoint"/>
                    </mxGeometry>
                </mxCell>
                <mxCell id="87" value="&amp;nbsp; {salario &amp;gt;= 0&lt;br&gt;&amp;nbsp; data_fim &amp;gt; data_inicio&lt;br&gt;&amp;nbsp; NOT NULL: data_fim,&amp;nbsp; &amp;nbsp; &amp;nbsp; &amp;nbsp; &amp;nbsp; salario}" style="shape=note;whiteSpace=wrap;html=1;backgroundOutline=1;darkOpacity=0.05;align=left;" parent="1" vertex="1">
                    <mxGeometry x="136" y="207" width="151" height="61" as="geometry"/>
                </mxCell>
                <mxCell id="88" value="" style="endArrow=none;dashed=1;html=1;entryX=0.455;entryY=1.038;entryDx=0;entryDy=0;entryPerimeter=0;" parent="1" target="SLbIaxvjg7kRNYuyK55--14" edge="1">
                    <mxGeometry width="50" height="50" relative="1" as="geometry">
                        <mxPoint x="210" y="205" as="sourcePoint"/>
                        <mxPoint x="216" y="201" as="targetPoint"/>
                    </mxGeometry>
                </mxCell>
                <mxCell id="89" value="&amp;nbsp; {NOT NULL: minuto&lt;br&gt;&amp;nbsp; 0 &amp;lt;= minuto&amp;nbsp;&amp;lt; 40&lt;br&gt;&amp;nbsp; PRIMARY KEY: id_evento}" style="shape=note;whiteSpace=wrap;html=1;backgroundOutline=1;darkOpacity=0.05;align=left;" parent="1" vertex="1">
                    <mxGeometry x="207" y="301.75" width="164" height="50.5" as="geometry"/>
                </mxCell>
                <mxCell id="90" value="" style="endArrow=none;dashed=1;html=1;exitX=1;exitY=0.5;exitDx=0;exitDy=0;entryX=0;entryY=0.5;entryDx=0;entryDy=0;entryPerimeter=0;" parent="1" source="8" target="89" edge="1">
                    <mxGeometry width="50" height="50" relative="1" as="geometry">
                        <mxPoint x="301" y="380" as="sourcePoint"/>
                        <mxPoint x="351" y="330" as="targetPoint"/>
                    </mxGeometry>
                </mxCell>
                <mxCell id="91" value="&amp;nbsp; {NOT NULL:&amp;nbsp;&lt;span&gt;jogador_saiu,&lt;br&gt;&lt;/span&gt;&lt;span&gt;&amp;nbsp; jogador_entrou&lt;br&gt;&lt;/span&gt;&amp;nbsp; PRIMARY KEY: id_substituicao}" style="shape=note;whiteSpace=wrap;html=1;backgroundOutline=1;darkOpacity=0.05;align=left;" parent="1" vertex="1">
                    <mxGeometry x="127.88" y="553.5" width="182" height="50.5" as="geometry"/>
                </mxCell>
                <mxCell id="92" value="" style="endArrow=none;dashed=1;html=1;" parent="1" edge="1">
                    <mxGeometry width="50" height="50" relative="1" as="geometry">
                        <mxPoint x="178" y="551" as="sourcePoint"/>
                        <mxPoint x="178" y="532" as="targetPoint"/>
                    </mxGeometry>
                </mxCell>
                <mxCell id="0PqPpjBaGrEqAzcDgpsS-93" value="1" style="text;html=1;align=center;verticalAlign=middle;resizable=0;points=[];autosize=1;strokeColor=none;fillColor=none;" parent="1" vertex="1">
                    <mxGeometry x="300" y="472" width="25" height="26" as="geometry"/>
                </mxCell>
                <mxCell id="0PqPpjBaGrEqAzcDgpsS-94" value="*" style="text;html=1;align=center;verticalAlign=middle;resizable=0;points=[];autosize=1;strokeColor=none;fillColor=none;" parent="1" vertex="1">
                    <mxGeometry x="155" y="363" width="23" height="26" as="geometry"/>
                </mxCell>
                <mxCell id="96" style="edgeStyle=none;html=1;entryX=0.795;entryY=1;entryDx=0;entryDy=0;entryPerimeter=0;exitX=-0.012;exitY=1.077;exitDx=0;exitDy=0;exitPerimeter=0;rounded=0;endArrow=none;endFill=0;" parent="1" source="43" target="93" edge="1">
                    <mxGeometry relative="1" as="geometry">
                        <Array as="points">
                            <mxPoint x="264" y="494"/>
                            <mxPoint x="264" y="380"/>
                            <mxPoint x="154" y="380"/>
                        </Array>
                    </mxGeometry>
                </mxCell>
                <mxCell id="97" value="1" style="text;html=1;align=center;verticalAlign=middle;resizable=0;points=[];autosize=1;strokeColor=none;fillColor=none;" parent="1" vertex="1">
                    <mxGeometry x="399" y="139" width="17" height="18" as="geometry"/>
                </mxCell>
                <mxCell id="98" value="*" style="text;html=1;align=center;verticalAlign=middle;resizable=0;points=[];autosize=1;strokeColor=none;fillColor=none;" parent="1" vertex="1">
                    <mxGeometry x="399" y="422" width="15" height="18" as="geometry"/>
                </mxCell>
            </root>
        </mxGraphModel>
    </diagram>
</mxfile>
>>>>>>> 785095d8d58ae24408676755ac005af78dd0c967
